<svg xmlns="http://www.w3.org/2000/svg" width="472" height="326" viewBox="0 0 472 326" font-family="ui-monospace, SFMono-Regular, Menlo, Consolas, monospace"><defs><linearGradient id="background" x1="0" y1="0" x2="0" y2="1"><stop stop-color="#111827"/><stop offset="1" stop-color="#0d1117"/></linearGradient></defs><rect width="472" height="326" rx="12" fill="url(#background)"/><rect x=".5" y=".5" width="471" height="325" rx="12" fill="none" stroke="#30363d"/><line x2="472" y1="32" y2="32" stroke="#30363d"/><circle cx="22" cy="16" r="5" fill="#ff5f56"/><circle cx="38" cy="16" r="5" fill="#ffbd2e"/><circle cx="54" cy="16" r="5" fill="#27c93f"/><text x="236.0" y="20" fill="#8b949e" font-size="12" font-weight="400">oleksandr@fitgym:~$ neofetch</text><text x="22" y="61" fill="#3fb950" font-size="14" font-weight="700">oleksandr@github</text><line x1="167" x2="450" y1="56" y2="56" stroke="#30363d"/><text x="22" y="84" fill="#ffa657" font-size="12.5" font-weight="700">Now</text><text x="110" y="84" fill="#c9d1d9" font-size="12.5" font-weight="400">Building FITGYM</text><text x="22" y="107" fill="#ffa657" font-size="12.5" font-weight="700">Role</text><text x="110" y="107" fill="#c9d1d9" font-size="12.5" font-weight="400">Founder · Full-stack developer</text><text x="22" y="130" fill="#ffa657" font-size="12.5" font-weight="700">Focus</text><text x="110" y="130" fill="#c9d1d9" font-size="12.5" font-weight="400">SaaS · payments · multi-tenancy</text><text x="22" y="153" fill="#ffa657" font-size="12.5" font-weight="700">Stack</text><text x="110" y="153" fill="#c9d1d9" font-size="12.5" font-weight="400">Django · React · React Native</text><text x="22" y="186.35" fill="#58a6ff" font-size="12.5" font-weight="700">— By day / By night</text><line x1="177" x2="450" y1="182.35" y2="182.35" stroke="#30363d"/><text x="22" y="209.35" fill="#ffa657" font-size="12.5" font-weight="700">By day</text><text x="110" y="209.35" fill="#c9d1d9" font-size="12.5" font-weight="400">Sysadmin &amp; programming instructor</text><text x="22" y="232.35" fill="#ffa657" font-size="12.5" font-weight="700">By night</text><text x="110" y="232.35" fill="#c9d1d9" font-size="12.5" font-weight="400">Shipping FITGYM end-to-end</text><text x="22" y="265.7" fill="#58a6ff" font-size="12.5" font-weight="700">— Current milestone</text><line x1="177" x2="450" y1="261.7" y2="261.7" stroke="#30363d"/><circle cx="26" cy="284.7" r="3" fill="#3fb950"/><text x="38" y="288.7" fill="#c9d1d9" font-size="12.5" font-weight="400">Preparing the Berdychiv Sky pilot</text></svg>