<svg xmlns="http://www.w3.org/2000/svg" width="1200" height="470" viewBox="0 0 1200 470" role="img" aria-labelledby="title desc">
  <title id="title">Oleksandr Riasnyi — Full-Stack Product Engineer building FITGYM</title>
  <desc id="desc">Technical lead and hands-on full-stack engineer building the FITGYM multi-tenant SaaS platform from backend through production release.</desc>
  <defs>
    <linearGradient id="bg" x1="0" y1="0" x2="1" y2="1">
      <stop offset="0" stop-color="#090A0C"/>
      <stop offset="0.62" stop-color="#111318"/>
      <stop offset="1" stop-color="#1A0B0E"/>
    </linearGradient>
    <linearGradient id="red" x1="0" y1="0" x2="1" y2="1">
      <stop stop-color="#F43F4F"/>
      <stop offset="1" stop-color="#B8081C"/>
    </linearGradient>
    <linearGradient id="redSoft" x1="0" y1="0" x2="1" y2="0">
      <stop stop-color="#F43F4F" stop-opacity="0.2"/>
      <stop offset="1" stop-color="#F43F4F" stop-opacity="0"/>
    </linearGradient>
    <filter id="shadow" x="-30%" y="-30%" width="160%" height="160%">
      <feDropShadow dx="0" dy="18" stdDeviation="24" flood-color="#000" flood-opacity="0.42"/>
    </filter>
    <pattern id="grid" width="40" height="40" patternUnits="userSpaceOnUse">
      <path d="M40 0H0V40" fill="none" stroke="#FFFFFF" stroke-opacity="0.025"/>
    </pattern>
  </defs>

  <rect x="1" y="1" width="1198" height="468" rx="28" fill="url(#bg)" stroke="#30333A" stroke-width="2"/>
  <rect x="1" y="1" width="1198" height="468" rx="28" fill="url(#grid)"/>
  <path d="M0 0h1200v7H0z" fill="url(#red)"/>

  <g opacity="0.55">
    <path d="M690 82h106l42 42h82" fill="none" stroke="#F43F4F" stroke-opacity="0.28" stroke-width="2"/>
    <circle cx="690" cy="82" r="5" fill="#F43F4F"/>
    <circle cx="920" cy="124" r="5" fill="#F43F4F"/>
    <path d="M735 340h74l32-32h84" fill="none" stroke="#F43F4F" stroke-opacity="0.22" stroke-width="2"/>
    <circle cx="735" cy="340" r="5" fill="#F43F4F"/>
  </g>

  <g transform="translate(54 54)">
    <rect width="372" height="34" rx="17" fill="#181B21" stroke="#343840"/>
    <circle cx="20" cy="17" r="5" fill="#3FB950"/>
    <text x="34" y="22" fill="#C8CCD4" font-family="ui-monospace, SFMono-Regular, Menlo, Consolas, monospace" font-size="13" font-weight="700" letter-spacing="1.6">AVAILABLE FOR PRODUCT ENGINEERING</text>

    <text x="0" y="98" fill="#8C929E" font-family="ui-monospace, SFMono-Regular, Menlo, Consolas, monospace" font-size="17" letter-spacing="4">OLEKSANDR RIASNYI</text>
    <text x="0" y="159" fill="#F7F8FA" font-family="-apple-system, BlinkMacSystemFont, Segoe UI, Helvetica, Arial, sans-serif" font-size="52" font-weight="800">Full-Stack Product</text>
    <text x="0" y="219" fill="#F7F8FA" font-family="-apple-system, BlinkMacSystemFont, Segoe UI, Helvetica, Arial, sans-serif" font-size="56" font-weight="800">Engineer.</text>
    <rect x="0" y="246" width="474" height="4" rx="2" fill="url(#redSoft)"/>
    <text x="0" y="286" fill="#B6BBC5" font-family="-apple-system, BlinkMacSystemFont, Segoe UI, Helvetica, Arial, sans-serif" font-size="23">Django · React · React Native · CI/CD</text>

    <g transform="translate(0 322)" font-family="ui-monospace, SFMono-Regular, Menlo, Consolas, monospace" font-size="13" font-weight="700" letter-spacing="1">
      <rect width="145" height="42" rx="10" fill="#171A20" stroke="#30343C"/>
      <text x="18" y="26" fill="#D1D5DC">BACKEND</text>
      <rect x="157" width="142" height="42" rx="10" fill="#171A20" stroke="#30343C"/>
      <text x="175" y="26" fill="#D1D5DC">FRONTEND</text>
      <rect x="311" width="140" height="42" rx="10" fill="#171A20" stroke="#30343C"/>
      <text x="329" y="26" fill="#D1D5DC">MOBILE</text>
      <rect x="463" width="155" height="42" rx="10" fill="#171A20" stroke="#30343C"/>
      <text x="481" y="26" fill="#D1D5DC">DEVOPS</text>
    </g>
  </g>

  <g transform="translate(760 50)" filter="url(#shadow)">
    <rect width="384" height="370" rx="24" fill="#111318" stroke="#3B3E46" stroke-width="2"/>
    <rect width="384" height="106" rx="24" fill="url(#red)"/>
    <path d="M0 76h384v30H0z" fill="url(#red)"/>
    <text x="28" y="37" fill="#FFDDE1" font-family="ui-monospace, SFMono-Regular, Menlo, Consolas, monospace" font-size="13" font-weight="700" letter-spacing="2.4">CURRENT PRODUCT</text>
    <text x="28" y="80" fill="#FFFFFF" font-family="-apple-system, BlinkMacSystemFont, Segoe UI, Helvetica, Arial, sans-serif" font-size="38" font-weight="850">FITGYM</text>
    <circle cx="334" cy="53" r="22" fill="#FFFFFF" fill-opacity="0.12" stroke="#FFFFFF" stroke-opacity="0.25"/>
    <text x="334" y="59" text-anchor="middle" fill="#FFFFFF" font-family="ui-monospace, SFMono-Regular, Menlo, Consolas, monospace" font-size="16" font-weight="800">FG</text>

    <text x="192" y="143" text-anchor="middle" fill="#777E8A" font-family="ui-monospace, SFMono-Regular, Menlo, Consolas, monospace" font-size="12" letter-spacing="2">MULTI-TENANT SAAS</text>
    <text x="192" y="176" text-anchor="middle" fill="#F0F2F5" font-family="-apple-system, BlinkMacSystemFont, Segoe UI, Helvetica, Arial, sans-serif" font-size="23" font-weight="700">CRM for fitness clubs</text>

    <g font-family="ui-monospace, SFMono-Regular, Menlo, Consolas, monospace" font-size="12" font-weight="700" letter-spacing="1">
      <rect x="28" y="207" width="155" height="42" rx="10" fill="#171A20" stroke="#30343C"/>
      <circle cx="48" cy="228" r="4" fill="#F43F4F"/><text x="62" y="233" fill="#D8DBE1">TENANCY</text>
      <rect x="201" y="207" width="155" height="42" rx="10" fill="#171A20" stroke="#30343C"/>
      <circle cx="221" cy="228" r="4" fill="#F43F4F"/><text x="235" y="233" fill="#D8DBE1">BOOKINGS</text>
      <rect x="28" y="261" width="155" height="42" rx="10" fill="#171A20" stroke="#30343C"/>
      <circle cx="48" cy="282" r="4" fill="#F43F4F"/><text x="62" y="287" fill="#D8DBE1">QR ACCESS</text>
      <rect x="201" y="261" width="155" height="42" rx="10" fill="#171A20" stroke="#30343C"/>
      <circle cx="221" cy="282" r="4" fill="#F43F4F"/><text x="235" y="287" fill="#D8DBE1">PAYMENTS</text>
    </g>

    <path d="M28 324h328" stroke="#2D3037"/>
    <circle cx="36" cy="348" r="5" fill="#3FB950"/>
    <text x="50" y="353" fill="#F0F2F5" font-family="ui-monospace, SFMono-Regular, Menlo, Consolas, monospace" font-size="13" font-weight="700" letter-spacing="1.5">PILOT PREPARATION</text>
  </g>
</svg>
