<svg xmlns="http://www.w3.org/2000/svg" width="1200" height="410" viewBox="0 0 1200 410" role="img" aria-label="1751 contributions in the last year, longest streak 99 days">
<title>1751 contributions in the last year, longest streak 99 days</title>
<style>
.s{font-family:-apple-system, BlinkMacSystemFont, 'Segoe UI', 'Helvetica Neue', Helvetica, Arial, sans-serif} .m{font-family:ui-monospace, SFMono-Regular, 'SF Mono', Menlo, Consolas, 'Liberation Mono', monospace}
@keyframes breathe{0%,100%{opacity:1}50%{opacity:.45}}
.breathe{animation:breathe 4s ease-in-out infinite}
.compact{display:none} @media (max-width:560px){.full{display:none} .compact{display:inline}}</style>
<defs>
<linearGradient id="edge" x1="0" y1="0" x2="1" y2="1">
  <stop offset="0" stop-color="#34363B"/><stop offset=".5" stop-color="#16171A"/><stop offset="1" stop-color="#26282C"/>
</linearGradient>
<filter id="glow" x="-100%" y="-100%" width="300%" height="300%">
  <feGaussianBlur stdDeviation="5" result="b"/><feMerge><feMergeNode in="b"/><feMergeNode in="b"/><feMergeNode in="SourceGraphic"/></feMerge>
</filter>
<radialGradient id="redLight"><stop offset="0" stop-color="#E0101A" stop-opacity=".5"/>
  <stop offset=".4" stop-color="#E0101A" stop-opacity=".12"/><stop offset="1" stop-color="#E0101A" stop-opacity="0"/></radialGradient>
</defs>

<rect x="1" y="1" width="1198" height="408" rx="18" fill="#050506" stroke="url(#edge)" stroke-width="1.5"/>
<g class="full">
  <text x="34" y="74" class="s" font-size="44" fill="#F2F3F5" font-weight="800" letter-spacing="-1.5" >1,751</text>
  <text x="36" y="102" class="s" font-size="15" fill="#5E636B" font-weight="400" xml:space="preserve">contributions in the last year  ·  99-day longest streak  ·  best day 69 on Jul 15</text>
</g>
<g class="compact">
  <text x="34" y="98" class="s" font-size="84" fill="#F2F3F5" font-weight="800" letter-spacing="-3" >1,751</text>
  <text x="36" y="146" class="s" font-size="36" fill="#5E636B" >contributions · 99-day streak</text>
</g>
<polygon points="113.4,181.3 129.0,184.1 129.0,182.1 113.4,179.3" fill="#0A0B0C"/><polygon points="135.6,178.7 129.0,184.1 129.0,182.1 135.6,176.7" fill="#08090A"/><polygon points="120.0,174.0 135.6,176.7 129.0,182.1 113.4,179.3" fill="#0E0F11"/><polygon points="131.7,184.5 147.3,187.2 147.3,185.2 131.7,182.5" fill="#0A0B0C"/><polygon points="153.9,181.9 147.3,187.2 147.3,185.2 153.9,179.9" fill="#08090A"/><polygon points="138.3,177.2 153.9,179.9 147.3,185.2 131.7,182.5" fill="#0E0F11"/><polygon points="150.0,187.7 165.6,190.5 165.6,188.5 150.0,185.7" fill="#0A0B0C"/><polygon points="172.2,185.1 165.6,190.5 165.6,188.5 172.2,183.1" fill="#08090A"/><polygon points="156.6,180.4 172.2,183.1 165.6,188.5 150.0,185.7" fill="#0E0F11"/><polygon points="168.3,190.9 183.9,193.7 183.9,191.7 168.3,188.9" fill="#0A0B0C"/><polygon points="190.5,188.3 183.9,193.7 183.9,191.7 190.5,186.3" fill="#08090A"/><polygon points="174.9,183.6 190.5,186.3 183.9,191.7 168.3,188.9" fill="#0E0F11"/><polygon points="186.6,194.1 202.2,196.9 202.2,194.9 186.6,192.1" fill="#0A0B0C"/><polygon points="208.8,191.5 202.2,196.9 202.2,194.9 208.8,189.5" fill="#08090A"/><polygon points="193.2,186.8 208.8,189.5 202.2,194.9 186.6,192.1" fill="#0E0F11"/><g><polygon points="204.9,197.3 220.5,200.1 220.5,172.0 204.9,169.2" fill="#1C1E21"/><polygon points="227.1,194.7 220.5,200.1 220.5,172.0 227.1,166.6" fill="#151618"/><polygon points="211.5,163.9 227.1,166.6 220.5,172.0 204.9,169.2" fill="#2A2C30"/></g><polygon points="223.2,200.5 238.8,203.2 238.8,201.2 223.2,198.5" fill="#0A0B0C"/><polygon points="245.4,197.9 238.8,203.2 238.8,201.2 245.4,195.9" fill="#08090A"/><polygon points="229.8,193.2 245.4,195.9 238.8,201.2 223.2,198.5" fill="#0E0F11"/><polygon points="241.5,203.7 257.1,206.5 257.1,204.5 241.5,201.7" fill="#0A0B0C"/><polygon points="263.7,201.1 257.1,206.5 257.1,204.5 263.7,199.1" fill="#08090A"/><polygon points="248.1,196.4 263.7,199.1 257.1,204.5 241.5,201.7" fill="#0E0F11"/><polygon points="259.8,206.9 275.4,209.7 275.4,207.7 259.8,204.9" fill="#0A0B0C"/><polygon points="282.0,204.3 275.4,209.7 275.4,207.7 282.0,202.3" fill="#08090A"/><polygon points="266.4,199.6 282.0,202.3 275.4,207.7 259.8,204.9" fill="#0E0F11"/><polygon points="278.1,210.1 293.7,212.9 293.7,210.9 278.1,208.1" fill="#0A0B0C"/><polygon points="300.3,207.5 293.7,212.9 293.7,210.9 300.3,205.5" fill="#08090A"/><polygon points="284.7,202.8 300.3,205.5 293.7,210.9 278.1,208.1" fill="#0E0F11"/><polygon points="296.4,213.3 312.0,216.1 312.0,214.1 296.4,211.3" fill="#0A0B0C"/><polygon points="318.6,210.7 312.0,216.1 312.0,214.1 318.6,208.7" fill="#08090A"/><polygon points="303.0,206.0 318.6,208.7 312.0,214.1 296.4,211.3" fill="#0E0F11"/><polygon points="314.7,216.5 330.3,219.2 330.3,217.2 314.7,214.5" fill="#0A0B0C"/><polygon points="336.9,213.9 330.3,219.2 330.3,217.2 336.9,211.9" fill="#08090A"/><polygon points="321.3,209.2 336.9,211.9 330.3,217.2 314.7,214.5" fill="#0E0F11"/><polygon points="333.0,219.7 348.6,222.5 348.6,220.5 333.0,217.7" fill="#0A0B0C"/><polygon points="355.2,217.1 348.6,222.5 348.6,220.5 355.2,215.1" fill="#08090A"/><polygon points="339.6,212.4 355.2,215.1 348.6,220.5 333.0,217.7" fill="#0E0F11"/><polygon points="351.3,222.9 366.9,225.7 366.9,223.7 351.3,220.9" fill="#0A0B0C"/><polygon points="373.5,220.3 366.9,225.7 366.9,223.7 373.5,218.3" fill="#08090A"/><polygon points="357.9,215.6 373.5,218.3 366.9,223.7 351.3,220.9" fill="#0E0F11"/><polygon points="369.6,226.1 385.2,228.9 385.2,226.9 369.6,224.1" fill="#0A0B0C"/><polygon points="391.8,223.5 385.2,228.9 385.2,226.9 391.8,221.5" fill="#08090A"/><polygon points="376.2,218.8 391.8,221.5 385.2,226.9 369.6,224.1" fill="#0E0F11"/><polygon points="387.9,229.3 403.5,232.1 403.5,230.1 387.9,227.3" fill="#0A0B0C"/><polygon points="410.1,226.7 403.5,232.1 403.5,230.1 410.1,224.7" fill="#08090A"/><polygon points="394.5,222.0 410.1,224.7 403.5,230.1 387.9,227.3" fill="#0E0F11"/><polygon points="406.2,232.5 421.8,235.2 421.8,233.2 406.2,230.5" fill="#0A0B0C"/><polygon points="428.4,229.9 421.8,235.2 421.8,233.2 428.4,227.9" fill="#08090A"/><polygon points="412.8,225.2 428.4,227.9 421.8,233.2 406.2,230.5" fill="#0E0F11"/><polygon points="424.5,235.7 440.1,238.5 440.1,236.5 424.5,233.7" fill="#0A0B0C"/><polygon points="446.7,233.1 440.1,238.5 440.1,236.5 446.7,231.1" fill="#08090A"/><polygon points="431.1,228.4 446.7,231.1 440.1,236.5 424.5,233.7" fill="#0E0F11"/><polygon points="442.8,238.9 458.4,241.7 458.4,239.7 442.8,236.9" fill="#0A0B0C"/><polygon points="465.0,236.3 458.4,241.7 458.4,239.7 465.0,234.3" fill="#08090A"/><polygon points="449.4,231.6 465.0,234.3 458.4,239.7 442.8,236.9" fill="#0E0F11"/><polygon points="461.1,242.1 476.7,244.9 476.7,242.9 461.1,240.1" fill="#0A0B0C"/><polygon points="483.3,239.5 476.7,244.9 476.7,242.9 483.3,237.5" fill="#08090A"/><polygon points="467.7,234.8 483.3,237.5 476.7,242.9 461.1,240.1" fill="#0E0F11"/><g><polygon points="479.4,245.3 495.0,248.1 495.0,217.7 479.4,215.0" fill="#3E4248"/><polygon points="501.6,242.7 495.0,248.1 495.0,217.7 501.6,212.4" fill="#2F3236"/><polygon points="486.0,209.7 501.6,212.4 495.0,217.7 479.4,215.0" fill="#5A5F66"/></g><g><polygon points="497.7,248.5 513.3,251.2 513.3,161.9 497.7,159.1" fill="#B00C14"/><polygon points="519.9,245.9 513.3,251.2 513.3,161.9 519.9,156.5" fill="#7E0910"/><polygon points="504.3,153.8 519.9,156.5 513.3,161.9 497.7,159.1" fill="#FF2A2A" filter="url(#glow)"/></g><polygon points="516.0,251.7 531.6,254.5 531.6,252.5 516.0,249.7" fill="#0A0B0C"/><polygon points="538.2,249.1 531.6,254.5 531.6,252.5 538.2,247.1" fill="#08090A"/><polygon points="522.6,244.4 538.2,247.1 531.6,252.5 516.0,249.7" fill="#0E0F11"/><g><polygon points="534.3,254.9 549.9,257.7 549.9,234.5 534.3,231.8" fill="#1C1E21"/><polygon points="556.5,252.3 549.9,257.7 549.9,234.5 556.5,229.2" fill="#151618"/><polygon points="540.9,226.5 556.5,229.2 549.9,234.5 534.3,231.8" fill="#2A2C30"/></g><g><polygon points="552.6,258.1 568.2,260.9 568.2,226.4 552.6,223.7" fill="#3E4248"/><polygon points="574.8,255.5 568.2,260.9 568.2,226.4 574.8,221.1" fill="#2F3236"/><polygon points="559.2,218.3 574.8,221.1 568.2,226.4 552.6,223.7" fill="#5A5F66"/></g><polygon points="570.9,261.3 586.5,264.1 586.5,262.1 570.9,259.3" fill="#0A0B0C"/><polygon points="593.1,258.7 586.5,264.1 586.5,262.1 593.1,256.7" fill="#08090A"/><polygon points="577.5,254.0 593.1,256.7 586.5,262.1 570.9,259.3" fill="#0E0F11"/><polygon points="589.2,264.5 604.8,267.2 604.8,265.2 589.2,262.5" fill="#0A0B0C"/><polygon points="611.4,261.9 604.8,267.2 604.8,265.2 611.4,259.9" fill="#08090A"/><polygon points="595.8,257.2 611.4,259.9 604.8,265.2 589.2,262.5" fill="#0E0F11"/><polygon points="607.5,267.7 623.1,270.4 623.1,268.4 607.5,265.7" fill="#0A0B0C"/><polygon points="629.7,265.1 623.1,270.4 623.1,268.4 629.7,263.1" fill="#08090A"/><polygon points="614.1,260.4 629.7,263.1 623.1,268.4 607.5,265.7" fill="#0E0F11"/><polygon points="625.8,270.9 641.4,273.7 641.4,271.7 625.8,268.9" fill="#0A0B0C"/><polygon points="648.0,268.3 641.4,273.7 641.4,271.7 648.0,266.3" fill="#08090A"/><polygon points="632.4,263.6 648.0,266.3 641.4,271.7 625.8,268.9" fill="#0E0F11"/><g><polygon points="644.1,274.1 659.7,276.9 659.7,231.8 644.1,229.1" fill="#3E4248"/><polygon points="666.3,271.5 659.7,276.9 659.7,231.8 666.3,226.5" fill="#2F3236"/><polygon points="650.7,223.8 666.3,226.5 659.7,231.8 644.1,229.1" fill="#5A5F66"/></g><polygon points="662.4,277.3 678.0,280.1 678.0,278.1 662.4,275.3" fill="#0A0B0C"/><polygon points="684.6,274.7 678.0,280.1 678.0,278.1 684.6,272.7" fill="#08090A"/><polygon points="669.0,270.0 684.6,272.7 678.0,278.1 662.4,275.3" fill="#0E0F11"/><polygon points="680.7,280.5 696.3,283.2 696.3,281.2 680.7,278.5" fill="#0A0B0C"/><polygon points="702.9,277.9 696.3,283.2 696.3,281.2 702.9,275.9" fill="#08090A"/><polygon points="687.3,273.2 702.9,275.9 696.3,281.2 680.7,278.5" fill="#0E0F11"/><polygon points="699.0,283.7 714.6,286.4 714.6,284.4 699.0,281.7" fill="#0A0B0C"/><polygon points="721.2,281.1 714.6,286.4 714.6,284.4 721.2,279.1" fill="#08090A"/><polygon points="705.6,276.4 721.2,279.1 714.6,284.4 699.0,281.7" fill="#0E0F11"/><g><polygon points="717.3,286.9 732.9,289.7 732.9,261.6 717.3,258.8" fill="#1C1E21"/><polygon points="739.5,284.3 732.9,289.7 732.9,261.6 739.5,256.2" fill="#151618"/><polygon points="723.9,253.5 739.5,256.2 732.9,261.6 717.3,258.8" fill="#2A2C30"/></g><polygon points="735.6,290.1 751.2,292.9 751.2,290.9 735.6,288.1" fill="#0A0B0C"/><polygon points="757.8,287.5 751.2,292.9 751.2,290.9 757.8,285.5" fill="#08090A"/><polygon points="742.2,282.8 757.8,285.5 751.2,290.9 735.6,288.1" fill="#0E0F11"/><polygon points="753.9,293.3 769.5,296.1 769.5,294.1 753.9,291.3" fill="#0A0B0C"/><polygon points="776.1,290.7 769.5,296.1 769.5,294.1 776.1,288.7" fill="#08090A"/><polygon points="760.5,286.0 776.1,288.7 769.5,294.1 753.9,291.3" fill="#0E0F11"/><g><polygon points="772.2,296.5 787.8,299.2 787.8,282.3 772.2,279.6" fill="#1C1E21"/><polygon points="794.4,293.9 787.8,299.2 787.8,282.3 794.4,277.0" fill="#151618"/><polygon points="778.8,274.3 794.4,277.0 787.8,282.3 772.2,279.6" fill="#2A2C30"/></g><g><polygon points="790.5,299.7 806.1,302.4 806.1,266.1 790.5,263.3" fill="#3E4248"/><polygon points="812.7,297.1 806.1,302.4 806.1,266.1 812.7,260.7" fill="#2F3236"/><polygon points="797.1,258.0 812.7,260.7 806.1,266.1 790.5,263.3" fill="#5A5F66"/></g><g><polygon points="808.8,302.9 824.4,305.7 824.4,285.4 808.8,282.7" fill="#1C1E21"/><polygon points="831.0,300.3 824.4,305.7 824.4,285.4 831.0,280.1" fill="#151618"/><polygon points="815.4,277.4 831.0,280.1 824.4,285.4 808.8,282.7" fill="#2A2C30"/></g><g><polygon points="827.1,306.1 842.7,308.9 842.7,259.2 827.1,256.5" fill="#80868E"/><polygon points="849.3,303.5 842.7,308.9 842.7,259.2 849.3,253.9" fill="#5F646B"/><polygon points="833.7,251.1 849.3,253.9 842.7,259.2 827.1,256.5" fill="#B4B9C0"/></g><g><polygon points="845.4,309.3 861.0,312.1 861.0,238.2 845.4,235.5" fill="#80868E"/><polygon points="867.6,306.7 861.0,312.1 861.0,238.2 867.6,232.9" fill="#5F646B"/><polygon points="852.0,230.2 867.6,232.9 861.0,238.2 845.4,235.5" fill="#B4B9C0"/></g><g><polygon points="863.7,312.5 879.3,315.3 879.3,282.8 863.7,280.1" fill="#3E4248"/><polygon points="885.9,309.9 879.3,315.3 879.3,282.8 885.9,277.5" fill="#2F3236"/><polygon points="870.3,274.7 885.9,277.5 879.3,282.8 863.7,280.1" fill="#5A5F66"/></g><g><polygon points="882.0,315.7 897.6,318.4 897.6,288.1 882.0,285.4" fill="#3E4248"/><polygon points="904.2,313.1 897.6,318.4 897.6,288.1 904.2,282.8" fill="#2F3236"/><polygon points="888.6,280.1 904.2,282.8 897.6,288.1 882.0,285.4" fill="#5A5F66"/></g><g><polygon points="900.3,318.9 915.9,321.7 915.9,285.3 900.3,282.5" fill="#3E4248"/><polygon points="922.5,316.3 915.9,321.7 915.9,285.3 922.5,279.9" fill="#2F3236"/><polygon points="906.9,277.2 922.5,279.9 915.9,285.3 900.3,282.5" fill="#5A5F66"/></g><g><polygon points="918.6,322.1 934.2,324.9 934.2,284.8 918.6,282.1" fill="#3E4248"/><polygon points="940.8,319.5 934.2,324.9 934.2,284.8 940.8,279.5" fill="#2F3236"/><polygon points="925.2,276.8 940.8,279.5 934.2,284.8 918.6,282.1" fill="#5A5F66"/></g><g><polygon points="936.9,325.3 952.5,328.1 952.5,307.8 936.9,305.1" fill="#1C1E21"/><polygon points="959.1,322.7 952.5,328.1 952.5,307.8 959.1,302.5" fill="#151618"/><polygon points="943.5,299.8 959.1,302.5 952.5,307.8 936.9,305.1" fill="#2A2C30"/></g><g><polygon points="955.2,328.5 970.8,331.3 970.8,314.3 955.2,311.6" fill="#1C1E21"/><polygon points="977.4,325.9 970.8,331.3 970.8,314.3 977.4,309.0" fill="#151618"/><polygon points="961.8,306.3 977.4,309.0 970.8,314.3 955.2,311.6" fill="#2A2C30"/></g><g><polygon points="973.5,331.7 989.1,334.4 989.1,306.4 973.5,303.6" fill="#1C1E21"/><polygon points="995.7,329.1 989.1,334.4 989.1,306.4 995.7,301.0" fill="#151618"/><polygon points="980.1,298.3 995.7,301.0 989.1,306.4 973.5,303.6" fill="#2A2C30"/></g><g><polygon points="991.8,334.9 1007.4,337.7 1007.4,320.7 991.8,318.0" fill="#1C1E21"/><polygon points="1014.0,332.3 1007.4,337.7 1007.4,320.7 1014.0,315.4" fill="#151618"/><polygon points="998.4,312.7 1014.0,315.4 1007.4,320.7 991.8,318.0" fill="#2A2C30"/></g><g><polygon points="1010.1,338.1 1025.7,340.9 1025.7,323.9 1010.1,321.2" fill="#1C1E21"/><polygon points="1032.3,335.5 1025.7,340.9 1025.7,323.9 1032.3,318.6" fill="#151618"/><polygon points="1016.7,315.9 1032.3,318.6 1025.7,323.9 1010.1,321.2" fill="#2A2C30"/></g><g><polygon points="1028.4,341.3 1044.0,344.1 1044.0,323.8 1028.4,321.1" fill="#1C1E21"/><polygon points="1050.6,338.7 1044.0,344.1 1044.0,323.8 1050.6,318.5" fill="#151618"/><polygon points="1035.0,315.8 1050.6,318.5 1044.0,323.8 1028.4,321.1" fill="#2A2C30"/></g><g><polygon points="1046.7,344.5 1062.3,347.3 1062.3,330.3 1046.7,327.6" fill="#1C1E21"/><polygon points="1068.9,341.9 1062.3,347.3 1062.3,330.3 1068.9,325.0" fill="#151618"/><polygon points="1053.3,322.3 1068.9,325.0 1062.3,330.3 1046.7,327.6" fill="#2A2C30"/></g><g><polygon points="1065.0,347.7 1080.6,350.4 1080.6,318.0 1065.0,315.3" fill="#3E4248"/><polygon points="1087.2,345.1 1080.6,350.4 1080.6,318.0 1087.2,312.7" fill="#2F3236"/><polygon points="1071.6,309.9 1087.2,312.7 1080.6,318.0 1065.0,315.3" fill="#5A5F66"/></g><polygon points="105.4,187.8 121.0,190.6 121.0,188.6 105.4,185.8" fill="#0A0B0C"/><polygon points="127.6,185.2 121.0,190.6 121.0,188.6 127.6,183.2" fill="#08090A"/><polygon points="112.0,180.5 127.6,183.2 121.0,188.6 105.4,185.8" fill="#0E0F11"/><g><polygon points="123.7,191.0 139.3,193.8 139.3,180.9 123.7,178.1" fill="#1C1E21"/><polygon points="145.9,188.4 139.3,193.8 139.3,180.9 145.9,175.5" fill="#151618"/><polygon points="130.3,172.8 145.9,175.5 139.3,180.9 123.7,178.1" fill="#2A2C30"/></g><polygon points="142.0,194.2 157.6,197.0 157.6,195.0 142.0,192.2" fill="#0A0B0C"/><polygon points="164.2,191.6 157.6,197.0 157.6,195.0 164.2,189.6" fill="#08090A"/><polygon points="148.6,186.9 164.2,189.6 157.6,195.0 142.0,192.2" fill="#0E0F11"/><polygon points="160.3,197.4 175.9,200.2 175.9,198.2 160.3,195.4" fill="#0A0B0C"/><polygon points="182.5,194.8 175.9,200.2 175.9,198.2 182.5,192.8" fill="#08090A"/><polygon points="166.9,190.1 182.5,192.8 175.9,198.2 160.3,195.4" fill="#0E0F11"/><polygon points="178.6,200.6 194.2,203.4 194.2,201.4 178.6,198.6" fill="#0A0B0C"/><polygon points="200.8,198.0 194.2,203.4 194.2,201.4 200.8,196.0" fill="#08090A"/><polygon points="185.2,193.3 200.8,196.0 194.2,201.4 178.6,198.6" fill="#0E0F11"/><g><polygon points="196.9,203.8 212.5,206.6 212.5,183.4 196.9,180.7" fill="#1C1E21"/><polygon points="219.1,201.2 212.5,206.6 212.5,183.4 219.1,178.1" fill="#151618"/><polygon points="203.5,175.4 219.1,178.1 212.5,183.4 196.9,180.7" fill="#2A2C30"/></g><polygon points="215.2,207.0 230.8,209.8 230.8,207.8 215.2,205.0" fill="#0A0B0C"/><polygon points="237.4,204.4 230.8,209.8 230.8,207.8 237.4,202.4" fill="#08090A"/><polygon points="221.8,199.7 237.4,202.4 230.8,207.8 215.2,205.0" fill="#0E0F11"/><polygon points="233.5,210.2 249.1,213.0 249.1,211.0 233.5,208.2" fill="#0A0B0C"/><polygon points="255.7,207.6 249.1,213.0 249.1,211.0 255.7,205.6" fill="#08090A"/><polygon points="240.1,202.9 255.7,205.6 249.1,211.0 233.5,208.2" fill="#0E0F11"/><g><polygon points="251.8,213.4 267.4,216.2 267.4,183.7 251.8,181.0" fill="#3E4248"/><polygon points="274.0,210.8 267.4,216.2 267.4,183.7 274.0,178.4" fill="#2F3236"/><polygon points="258.4,175.6 274.0,178.4 267.4,183.7 251.8,181.0" fill="#5A5F66"/></g><g><polygon points="270.1,216.6 285.7,219.4 285.7,202.4 270.1,199.7" fill="#1C1E21"/><polygon points="292.3,214.0 285.7,219.4 285.7,202.4 292.3,197.1" fill="#151618"/><polygon points="276.7,194.4 292.3,197.1 285.7,202.4 270.1,199.7" fill="#2A2C30"/></g><polygon points="288.4,219.8 304.0,222.6 304.0,220.6 288.4,217.8" fill="#0A0B0C"/><polygon points="310.6,217.2 304.0,222.6 304.0,220.6 310.6,215.2" fill="#08090A"/><polygon points="295.0,212.5 310.6,215.2 304.0,220.6 288.4,217.8" fill="#0E0F11"/><polygon points="306.7,223.0 322.3,225.8 322.3,223.8 306.7,221.0" fill="#0A0B0C"/><polygon points="328.9,220.4 322.3,225.8 322.3,223.8 328.9,218.4" fill="#08090A"/><polygon points="313.3,215.7 328.9,218.4 322.3,223.8 306.7,221.0" fill="#0E0F11"/><polygon points="325.0,226.2 340.6,229.0 340.6,227.0 325.0,224.2" fill="#0A0B0C"/><polygon points="347.2,223.6 340.6,229.0 340.6,227.0 347.2,221.6" fill="#08090A"/><polygon points="331.6,218.9 347.2,221.6 340.6,227.0 325.0,224.2" fill="#0E0F11"/><polygon points="343.3,229.4 358.9,232.2 358.9,230.2 343.3,227.4" fill="#0A0B0C"/><polygon points="365.5,226.8 358.9,232.2 358.9,230.2 365.5,224.8" fill="#08090A"/><polygon points="349.9,222.1 365.5,224.8 358.9,230.2 343.3,227.4" fill="#0E0F11"/><polygon points="361.6,232.6 377.2,235.4 377.2,233.4 361.6,230.6" fill="#0A0B0C"/><polygon points="383.8,230.0 377.2,235.4 377.2,233.4 383.8,228.0" fill="#08090A"/><polygon points="368.2,225.3 383.8,228.0 377.2,233.4 361.6,230.6" fill="#0E0F11"/><polygon points="379.9,235.8 395.5,238.6 395.5,236.6 379.9,233.8" fill="#0A0B0C"/><polygon points="402.1,233.2 395.5,238.6 395.5,236.6 402.1,231.2" fill="#08090A"/><polygon points="386.5,228.5 402.1,231.2 395.5,236.6 379.9,233.8" fill="#0E0F11"/><polygon points="398.2,239.0 413.8,241.8 413.8,239.8 398.2,237.0" fill="#0A0B0C"/><polygon points="420.4,236.4 413.8,241.8 413.8,239.8 420.4,234.4" fill="#08090A"/><polygon points="404.8,231.7 420.4,234.4 413.8,239.8 398.2,237.0" fill="#0E0F11"/><polygon points="416.5,242.2 432.1,245.0 432.1,243.0 416.5,240.2" fill="#0A0B0C"/><polygon points="438.7,239.6 432.1,245.0 432.1,243.0 438.7,237.6" fill="#08090A"/><polygon points="423.1,234.9 438.7,237.6 432.1,243.0 416.5,240.2" fill="#0E0F11"/><polygon points="434.8,245.4 450.4,248.2 450.4,246.2 434.8,243.4" fill="#0A0B0C"/><polygon points="457.0,242.8 450.4,248.2 450.4,246.2 457.0,240.8" fill="#08090A"/><polygon points="441.4,238.1 457.0,240.8 450.4,246.2 434.8,243.4" fill="#0E0F11"/><polygon points="453.1,248.6 468.7,251.4 468.7,249.4 453.1,246.6" fill="#0A0B0C"/><polygon points="475.3,246.0 468.7,251.4 468.7,249.4 475.3,244.0" fill="#08090A"/><polygon points="459.7,241.3 475.3,244.0 468.7,249.4 453.1,246.6" fill="#0E0F11"/><g><polygon points="471.4,251.8 487.0,254.6 487.0,220.1 471.4,217.4" fill="#3E4248"/><polygon points="493.6,249.2 487.0,254.6 487.0,220.1 493.6,214.8" fill="#2F3236"/><polygon points="478.0,212.0 493.6,214.8 487.0,220.1 471.4,217.4" fill="#5A5F66"/></g><g><polygon points="489.7,255.0 505.3,257.8 505.3,234.6 489.7,231.9" fill="#1C1E21"/><polygon points="511.9,252.4 505.3,257.8 505.3,234.6 511.9,229.3" fill="#151618"/><polygon points="496.3,226.6 511.9,229.3 505.3,234.6 489.7,231.9" fill="#2A2C30"/></g><polygon points="508.0,258.2 523.6,260.9 523.6,258.9 508.0,256.2" fill="#0A0B0C"/><polygon points="530.2,255.6 523.6,260.9 523.6,258.9 530.2,253.6" fill="#08090A"/><polygon points="514.6,250.9 530.2,253.6 523.6,258.9 508.0,256.2" fill="#0E0F11"/><polygon points="526.3,261.4 541.9,264.2 541.9,262.2 526.3,259.4" fill="#0A0B0C"/><polygon points="548.5,258.8 541.9,264.2 541.9,262.2 548.5,256.8" fill="#08090A"/><polygon points="532.9,254.1 548.5,256.8 541.9,262.2 526.3,259.4" fill="#0E0F11"/><polygon points="544.6,264.6 560.2,267.4 560.2,265.4 544.6,262.6" fill="#0A0B0C"/><polygon points="566.8,262.0 560.2,267.4 560.2,265.4 566.8,260.0" fill="#08090A"/><polygon points="551.2,257.3 566.8,260.0 560.2,265.4 544.6,262.6" fill="#0E0F11"/><polygon points="562.9,267.8 578.5,270.6 578.5,268.6 562.9,265.8" fill="#0A0B0C"/><polygon points="585.1,265.2 578.5,270.6 578.5,268.6 585.1,263.2" fill="#08090A"/><polygon points="569.5,260.5 585.1,263.2 578.5,268.6 562.9,265.8" fill="#0E0F11"/><polygon points="581.2,271.0 596.8,273.8 596.8,271.8 581.2,269.0" fill="#0A0B0C"/><polygon points="603.4,268.4 596.8,273.8 596.8,271.8 603.4,266.4" fill="#08090A"/><polygon points="587.8,263.7 603.4,266.4 596.8,271.8 581.2,269.0" fill="#0E0F11"/><g><polygon points="599.5,274.2 615.1,276.9 615.1,260.0 599.5,257.3" fill="#1C1E21"/><polygon points="621.7,271.6 615.1,276.9 615.1,260.0 621.7,254.7" fill="#151618"/><polygon points="606.1,252.0 621.7,254.7 615.1,260.0 599.5,257.3" fill="#2A2C30"/></g><polygon points="617.8,277.4 633.4,280.2 633.4,278.2 617.8,275.4" fill="#0A0B0C"/><polygon points="640.0,274.8 633.4,280.2 633.4,278.2 640.0,272.8" fill="#08090A"/><polygon points="624.4,270.1 640.0,272.8 633.4,278.2 617.8,275.4" fill="#0E0F11"/><g><polygon points="636.1,280.6 651.7,283.4 651.7,260.2 636.1,257.5" fill="#1C1E21"/><polygon points="658.3,278.0 651.7,283.4 651.7,260.2 658.3,254.9" fill="#151618"/><polygon points="642.7,252.2 658.3,254.9 651.7,260.2 636.1,257.5" fill="#2A2C30"/></g><polygon points="654.4,283.8 670.0,286.6 670.0,284.6 654.4,281.8" fill="#0A0B0C"/><polygon points="676.6,281.2 670.0,286.6 670.0,284.6 676.6,279.2" fill="#08090A"/><polygon points="661.0,276.5 676.6,279.2 670.0,284.6 654.4,281.8" fill="#0E0F11"/><g><polygon points="672.7,287.0 688.3,289.8 688.3,264.0 672.7,261.3" fill="#1C1E21"/><polygon points="694.9,284.4 688.3,289.8 688.3,264.0 694.9,258.7" fill="#151618"/><polygon points="679.3,256.0 694.9,258.7 688.3,264.0 672.7,261.3" fill="#2A2C30"/></g><g><polygon points="691.0,290.2 706.6,292.9 706.6,267.2 691.0,264.5" fill="#1C1E21"/><polygon points="713.2,287.6 706.6,292.9 706.6,267.2 713.2,261.9" fill="#151618"/><polygon points="697.6,259.2 713.2,261.9 706.6,267.2 691.0,264.5" fill="#2A2C30"/></g><polygon points="709.3,293.4 724.9,296.2 724.9,294.2 709.3,291.4" fill="#0A0B0C"/><polygon points="731.5,290.8 724.9,296.2 724.9,294.2 731.5,288.8" fill="#08090A"/><polygon points="715.9,286.1 731.5,288.8 724.9,294.2 709.3,291.4" fill="#0E0F11"/><g><polygon points="727.6,296.6 743.2,299.4 743.2,266.9 727.6,264.2" fill="#3E4248"/><polygon points="749.8,294.0 743.2,299.4 743.2,266.9 749.8,261.6" fill="#2F3236"/><polygon points="734.2,258.8 749.8,261.6 743.2,266.9 727.6,264.2" fill="#5A5F66"/></g><g><polygon points="745.9,299.8 761.5,302.6 761.5,272.2 745.9,269.5" fill="#3E4248"/><polygon points="768.1,297.2 761.5,302.6 761.5,272.2 768.1,266.9" fill="#2F3236"/><polygon points="752.5,264.2 768.1,266.9 761.5,272.2 745.9,269.5" fill="#5A5F66"/></g><g><polygon points="764.2,303.0 779.8,305.8 779.8,285.5 764.2,282.8" fill="#1C1E21"/><polygon points="786.4,300.4 779.8,305.8 779.8,285.5 786.4,280.2" fill="#151618"/><polygon points="770.8,277.5 786.4,280.2 779.8,285.5 764.2,282.8" fill="#2A2C30"/></g><g><polygon points="782.5,306.2 798.1,308.9 798.1,288.7 782.5,286.0" fill="#1C1E21"/><polygon points="804.7,303.6 798.1,308.9 798.1,288.7 804.7,283.4" fill="#151618"/><polygon points="789.1,280.7 804.7,283.4 798.1,288.7 782.5,286.0" fill="#2A2C30"/></g><g><polygon points="800.8,309.4 816.4,312.2 816.4,289.0 800.8,286.3" fill="#1C1E21"/><polygon points="823.0,306.8 816.4,312.2 816.4,289.0 823.0,283.7" fill="#151618"/><polygon points="807.4,281.0 823.0,283.7 816.4,289.0 800.8,286.3" fill="#2A2C30"/></g><g><polygon points="819.1,312.6 834.7,315.4 834.7,295.1 819.1,292.4" fill="#1C1E21"/><polygon points="841.3,310.0 834.7,315.4 834.7,295.1 841.3,289.8" fill="#151618"/><polygon points="825.7,287.1 841.3,289.8 834.7,295.1 819.1,292.4" fill="#2A2C30"/></g><g><polygon points="837.4,315.8 853.0,318.6 853.0,282.2 837.4,279.4" fill="#3E4248"/><polygon points="859.6,313.2 853.0,318.6 853.0,282.2 859.6,276.8" fill="#2F3236"/><polygon points="844.0,274.1 859.6,276.8 853.0,282.2 837.4,279.4" fill="#5A5F66"/></g><g><polygon points="855.7,319.0 871.3,321.8 871.3,283.5 855.7,280.8" fill="#3E4248"/><polygon points="877.9,316.4 871.3,321.8 871.3,283.5 877.9,278.2" fill="#2F3236"/><polygon points="862.3,275.5 877.9,278.2 871.3,283.5 855.7,280.8" fill="#5A5F66"/></g><g><polygon points="874.0,322.2 889.6,324.9 889.6,246.8 874.0,244.1" fill="#B00C14"/><polygon points="896.2,319.6 889.6,324.9 889.6,246.8 896.2,241.4" fill="#7E0910"/><polygon points="880.6,238.7 896.2,241.4 889.6,246.8 874.0,244.1" fill="#FF2A2A" filter="url(#glow)"/></g><g><polygon points="892.3,325.4 907.9,328.2 907.9,289.9 892.3,287.2" fill="#3E4248"/><polygon points="914.5,322.8 907.9,328.2 907.9,289.9 914.5,284.6" fill="#2F3236"/><polygon points="898.9,281.9 914.5,284.6 907.9,289.9 892.3,287.2" fill="#5A5F66"/></g><g><polygon points="910.6,328.6 926.2,331.4 926.2,293.1 910.6,290.4" fill="#3E4248"/><polygon points="932.8,326.0 926.2,331.4 926.2,293.1 932.8,287.8" fill="#2F3236"/><polygon points="917.2,285.1 932.8,287.8 926.2,293.1 910.6,290.4" fill="#5A5F66"/></g><g><polygon points="928.9,331.8 944.5,334.6 944.5,314.3 928.9,311.6" fill="#1C1E21"/><polygon points="951.1,329.2 944.5,334.6 944.5,314.3 951.1,309.0" fill="#151618"/><polygon points="935.5,306.3 951.1,309.0 944.5,314.3 928.9,311.6" fill="#2A2C30"/></g><g><polygon points="947.2,335.0 962.8,337.8 962.8,272.1 947.2,269.4" fill="#80868E"/><polygon points="969.4,332.4 962.8,337.8 962.8,272.1 969.4,266.8" fill="#5F646B"/><polygon points="953.8,264.0 969.4,266.8 962.8,272.1 947.2,269.4" fill="#B4B9C0"/></g><g><polygon points="965.5,338.2 981.1,340.9 981.1,300.9 965.5,298.2" fill="#3E4248"/><polygon points="987.7,335.6 981.1,340.9 981.1,300.9 987.7,295.6" fill="#2F3236"/><polygon points="972.1,292.9 987.7,295.6 981.1,300.9 965.5,298.2" fill="#5A5F66"/></g><g><polygon points="983.8,341.4 999.4,344.2 999.4,327.2 983.8,324.5" fill="#1C1E21"/><polygon points="1006.0,338.8 999.4,344.2 999.4,327.2 1006.0,321.9" fill="#151618"/><polygon points="990.4,319.2 1006.0,321.9 999.4,327.2 983.8,324.5" fill="#2A2C30"/></g><g><polygon points="1002.1,344.6 1017.7,347.4 1017.7,317.0 1002.1,314.3" fill="#3E4248"/><polygon points="1024.3,342.0 1017.7,347.4 1017.7,317.0 1024.3,311.7" fill="#2F3236"/><polygon points="1008.7,309.0 1024.3,311.7 1017.7,317.0 1002.1,314.3" fill="#5A5F66"/></g><g><polygon points="1020.4,347.8 1036.0,350.6 1036.0,316.1 1020.4,313.4" fill="#3E4248"/><polygon points="1042.6,345.2 1036.0,350.6 1036.0,316.1 1042.6,310.8" fill="#2F3236"/><polygon points="1027.0,308.0 1042.6,310.8 1036.0,316.1 1020.4,313.4" fill="#5A5F66"/></g><g><polygon points="1038.7,351.0 1054.3,353.8 1054.3,323.4 1038.7,320.7" fill="#3E4248"/><polygon points="1060.9,348.4 1054.3,353.8 1054.3,323.4 1060.9,318.1" fill="#2F3236"/><polygon points="1045.3,315.4 1060.9,318.1 1054.3,323.4 1038.7,320.7" fill="#5A5F66"/></g><g><polygon points="1057.0,354.2 1072.6,356.9 1072.6,331.2 1057.0,328.5" fill="#1C1E21"/><polygon points="1079.2,351.6 1072.6,356.9 1072.6,331.2 1079.2,325.9" fill="#151618"/><polygon points="1063.6,323.2 1079.2,325.9 1072.6,331.2 1057.0,328.5" fill="#2A2C30"/></g><polygon points="97.4,194.3 113.0,197.1 113.0,195.1 97.4,192.3" fill="#0A0B0C"/><polygon points="119.6,191.7 113.0,197.1 113.0,195.1 119.6,189.7" fill="#08090A"/><polygon points="104.0,187.0 119.6,189.7 113.0,195.1 97.4,192.3" fill="#0E0F11"/><polygon points="115.7,197.5 131.3,200.2 131.3,198.2 115.7,195.5" fill="#0A0B0C"/><polygon points="137.9,194.9 131.3,200.2 131.3,198.2 137.9,192.9" fill="#08090A"/><polygon points="122.3,190.2 137.9,192.9 131.3,198.2 115.7,195.5" fill="#0E0F11"/><polygon points="134.0,200.7 149.6,203.5 149.6,201.5 134.0,198.7" fill="#0A0B0C"/><polygon points="156.2,198.1 149.6,203.5 149.6,201.5 156.2,196.1" fill="#08090A"/><polygon points="140.6,193.4 156.2,196.1 149.6,201.5 134.0,198.7" fill="#0E0F11"/><polygon points="152.3,203.9 167.9,206.7 167.9,204.7 152.3,201.9" fill="#0A0B0C"/><polygon points="174.5,201.3 167.9,206.7 167.9,204.7 174.5,199.3" fill="#08090A"/><polygon points="158.9,196.6 174.5,199.3 167.9,204.7 152.3,201.9" fill="#0E0F11"/><g><polygon points="170.6,207.1 186.2,209.9 186.2,197.0 170.6,194.2" fill="#1C1E21"/><polygon points="192.8,204.5 186.2,209.9 186.2,197.0 192.8,191.6" fill="#151618"/><polygon points="177.2,188.9 192.8,191.6 186.2,197.0 170.6,194.2" fill="#2A2C30"/></g><g><polygon points="188.9,210.3 204.5,213.1 204.5,192.8 188.9,190.1" fill="#1C1E21"/><polygon points="211.1,207.7 204.5,213.1 204.5,192.8 211.1,187.5" fill="#151618"/><polygon points="195.5,184.8 211.1,187.5 204.5,192.8 188.9,190.1" fill="#2A2C30"/></g><g><polygon points="207.2,213.5 222.8,216.2 222.8,193.1 207.2,190.4" fill="#1C1E21"/><polygon points="229.4,210.9 222.8,216.2 222.8,193.1 229.4,187.8" fill="#151618"/><polygon points="213.8,185.1 229.4,187.8 222.8,193.1 207.2,190.4" fill="#2A2C30"/></g><polygon points="225.5,216.7 241.1,219.5 241.1,217.5 225.5,214.7" fill="#0A0B0C"/><polygon points="247.7,214.1 241.1,219.5 241.1,217.5 247.7,212.1" fill="#08090A"/><polygon points="232.1,209.4 247.7,212.1 241.1,217.5 225.5,214.7" fill="#0E0F11"/><polygon points="243.8,219.9 259.4,222.7 259.4,220.7 243.8,217.9" fill="#0A0B0C"/><polygon points="266.0,217.3 259.4,222.7 259.4,220.7 266.0,215.3" fill="#08090A"/><polygon points="250.4,212.6 266.0,215.3 259.4,220.7 243.8,217.9" fill="#0E0F11"/><polygon points="262.1,223.1 277.7,225.9 277.7,223.9 262.1,221.1" fill="#0A0B0C"/><polygon points="284.3,220.5 277.7,225.9 277.7,223.9 284.3,218.5" fill="#08090A"/><polygon points="268.7,215.8 284.3,218.5 277.7,223.9 262.1,221.1" fill="#0E0F11"/><g><polygon points="280.4,226.3 296.0,229.1 296.0,189.0 280.4,186.3" fill="#3E4248"/><polygon points="302.6,223.7 296.0,229.1 296.0,189.0 302.6,183.7" fill="#2F3236"/><polygon points="287.0,181.0 302.6,183.7 296.0,189.0 280.4,186.3" fill="#5A5F66"/></g><polygon points="298.7,229.5 314.3,232.2 314.3,230.2 298.7,227.5" fill="#0A0B0C"/><polygon points="320.9,226.9 314.3,232.2 314.3,230.2 320.9,224.9" fill="#08090A"/><polygon points="305.3,222.2 320.9,224.9 314.3,230.2 298.7,227.5" fill="#0E0F11"/><polygon points="317.0,232.7 332.6,235.5 332.6,233.5 317.0,230.7" fill="#0A0B0C"/><polygon points="339.2,230.1 332.6,235.5 332.6,233.5 339.2,228.1" fill="#08090A"/><polygon points="323.6,225.4 339.2,228.1 332.6,233.5 317.0,230.7" fill="#0E0F11"/><polygon points="335.3,235.9 350.9,238.7 350.9,236.7 335.3,233.9" fill="#0A0B0C"/><polygon points="357.5,233.3 350.9,238.7 350.9,236.7 357.5,231.3" fill="#08090A"/><polygon points="341.9,228.6 357.5,231.3 350.9,236.7 335.3,233.9" fill="#0E0F11"/><polygon points="353.6,239.1 369.2,241.9 369.2,239.9 353.6,237.1" fill="#0A0B0C"/><polygon points="375.8,236.5 369.2,241.9 369.2,239.9 375.8,234.5" fill="#08090A"/><polygon points="360.2,231.8 375.8,234.5 369.2,239.9 353.6,237.1" fill="#0E0F11"/><g><polygon points="371.9,242.3 387.5,245.1 387.5,228.1 371.9,225.4" fill="#1C1E21"/><polygon points="394.1,239.7 387.5,245.1 387.5,228.1 394.1,222.8" fill="#151618"/><polygon points="378.5,220.1 394.1,222.8 387.5,228.1 371.9,225.4" fill="#2A2C30"/></g><polygon points="390.2,245.5 405.8,248.2 405.8,246.2 390.2,243.5" fill="#0A0B0C"/><polygon points="412.4,242.9 405.8,248.2 405.8,246.2 412.4,240.9" fill="#08090A"/><polygon points="396.8,238.2 412.4,240.9 405.8,246.2 390.2,243.5" fill="#0E0F11"/><polygon points="408.5,248.7 424.1,251.5 424.1,249.5 408.5,246.7" fill="#0A0B0C"/><polygon points="430.7,246.1 424.1,251.5 424.1,249.5 430.7,244.1" fill="#08090A"/><polygon points="415.1,241.4 430.7,244.1 424.1,249.5 408.5,246.7" fill="#0E0F11"/><polygon points="426.8,251.9 442.4,254.7 442.4,252.7 426.8,249.9" fill="#0A0B0C"/><polygon points="449.0,249.3 442.4,254.7 442.4,252.7 449.0,247.3" fill="#08090A"/><polygon points="433.4,244.6 449.0,247.3 442.4,252.7 426.8,249.9" fill="#0E0F11"/><g><polygon points="445.1,255.1 460.7,257.9 460.7,234.7 445.1,232.0" fill="#1C1E21"/><polygon points="467.3,252.5 460.7,257.9 460.7,234.7 467.3,229.4" fill="#151618"/><polygon points="451.7,226.7 467.3,229.4 460.7,234.7 445.1,232.0" fill="#2A2C30"/></g><g><polygon points="463.4,258.3 479.0,261.1 479.0,203.0 463.4,200.3" fill="#80868E"/><polygon points="485.6,255.7 479.0,261.1 479.0,203.0 485.6,197.7" fill="#5F646B"/><polygon points="470.0,194.9 485.6,197.7 479.0,203.0 463.4,200.3" fill="#B4B9C0"/></g><g><polygon points="481.7,261.5 497.3,264.2 497.3,247.3 481.7,244.6" fill="#1C1E21"/><polygon points="503.9,258.9 497.3,264.2 497.3,247.3 503.9,242.0" fill="#151618"/><polygon points="488.3,239.3 503.9,242.0 497.3,247.3 481.7,244.6" fill="#2A2C30"/></g><g><polygon points="500.0,264.7 515.6,267.4 515.6,250.5 500.0,247.8" fill="#1C1E21"/><polygon points="522.2,262.1 515.6,267.4 515.6,250.5 522.2,245.2" fill="#151618"/><polygon points="506.6,242.5 522.2,245.2 515.6,250.5 500.0,247.8" fill="#2A2C30"/></g><polygon points="518.3,267.9 533.9,270.7 533.9,268.7 518.3,265.9" fill="#0A0B0C"/><polygon points="540.5,265.3 533.9,270.7 533.9,268.7 540.5,263.3" fill="#08090A"/><polygon points="524.9,260.6 540.5,263.3 533.9,268.7 518.3,265.9" fill="#0E0F11"/><polygon points="536.6,271.1 552.2,273.9 552.2,271.9 536.6,269.1" fill="#0A0B0C"/><polygon points="558.8,268.5 552.2,273.9 552.2,271.9 558.8,266.5" fill="#08090A"/><polygon points="543.2,263.8 558.8,266.5 552.2,271.9 536.6,269.1" fill="#0E0F11"/><g><polygon points="554.9,274.3 570.5,277.1 570.5,244.6 554.9,241.9" fill="#3E4248"/><polygon points="577.1,271.7 570.5,277.1 570.5,244.6 577.1,239.3" fill="#2F3236"/><polygon points="561.5,236.5 577.1,239.3 570.5,244.6 554.9,241.9" fill="#5A5F66"/></g><g><polygon points="573.2,277.5 588.8,280.2 588.8,267.4 573.2,264.6" fill="#1C1E21"/><polygon points="595.4,274.9 588.8,280.2 588.8,267.4 595.4,262.0" fill="#151618"/><polygon points="579.8,259.3 595.4,262.0 588.8,267.4 573.2,264.6" fill="#2A2C30"/></g><polygon points="591.5,280.7 607.1,283.4 607.1,281.4 591.5,278.7" fill="#0A0B0C"/><polygon points="613.7,278.1 607.1,283.4 607.1,281.4 613.7,276.1" fill="#08090A"/><polygon points="598.1,273.4 613.7,276.1 607.1,281.4 591.5,278.7" fill="#0E0F11"/><polygon points="609.8,283.9 625.4,286.7 625.4,284.7 609.8,281.9" fill="#0A0B0C"/><polygon points="632.0,281.3 625.4,286.7 625.4,284.7 632.0,279.3" fill="#08090A"/><polygon points="616.4,276.6 632.0,279.3 625.4,284.7 609.8,281.9" fill="#0E0F11"/><polygon points="628.1,287.1 643.7,289.9 643.7,287.9 628.1,285.1" fill="#0A0B0C"/><polygon points="650.3,284.5 643.7,289.9 643.7,287.9 650.3,282.5" fill="#08090A"/><polygon points="634.7,279.8 650.3,282.5 643.7,287.9 628.1,285.1" fill="#0E0F11"/><polygon points="646.4,290.3 662.0,293.1 662.0,291.1 646.4,288.3" fill="#0A0B0C"/><polygon points="668.6,287.7 662.0,293.1 662.0,291.1 668.6,285.7" fill="#08090A"/><polygon points="653.0,283.0 668.6,285.7 662.0,291.1 646.4,288.3" fill="#0E0F11"/><g><polygon points="664.7,293.5 680.3,296.2 680.3,273.1 664.7,270.4" fill="#1C1E21"/><polygon points="686.9,290.9 680.3,296.2 680.3,273.1 686.9,267.8" fill="#151618"/><polygon points="671.3,265.1 686.9,267.8 680.3,273.1 664.7,270.4" fill="#2A2C30"/></g><g><polygon points="683.0,296.7 698.6,299.4 698.6,269.1 683.0,266.4" fill="#3E4248"/><polygon points="705.2,294.1 698.6,299.4 698.6,269.1 705.2,263.8" fill="#2F3236"/><polygon points="689.6,261.1 705.2,263.8 698.6,269.1 683.0,266.4" fill="#5A5F66"/></g><g><polygon points="701.3,299.9 716.9,302.7 716.9,282.4 701.3,279.7" fill="#1C1E21"/><polygon points="723.5,297.3 716.9,302.7 716.9,282.4 723.5,277.1" fill="#151618"/><polygon points="707.9,274.4 723.5,277.1 716.9,282.4 701.3,279.7" fill="#2A2C30"/></g><g><polygon points="719.6,303.1 735.2,305.9 735.2,264.1 719.6,261.4" fill="#3E4248"/><polygon points="741.8,300.5 735.2,305.9 735.2,264.1 741.8,258.8" fill="#2F3236"/><polygon points="726.2,256.1 741.8,258.8 735.2,264.1 719.6,261.4" fill="#5A5F66"/></g><g><polygon points="737.9,306.3 753.5,309.1 753.5,292.1 737.9,289.4" fill="#1C1E21"/><polygon points="760.1,303.7 753.5,309.1 753.5,292.1 760.1,286.8" fill="#151618"/><polygon points="744.5,284.1 760.1,286.8 753.5,292.1 737.9,289.4" fill="#2A2C30"/></g><g><polygon points="756.2,309.5 771.8,312.2 771.8,284.2 756.2,281.4" fill="#1C1E21"/><polygon points="778.4,306.9 771.8,312.2 771.8,284.2 778.4,278.8" fill="#151618"/><polygon points="762.8,276.1 778.4,278.8 771.8,284.2 756.2,281.4" fill="#2A2C30"/></g><g><polygon points="774.5,312.7 790.1,315.4 790.1,295.2 774.5,292.5" fill="#1C1E21"/><polygon points="796.7,310.1 790.1,315.4 790.1,295.2 796.7,289.9" fill="#151618"/><polygon points="781.1,287.2 796.7,289.9 790.1,295.2 774.5,292.5" fill="#2A2C30"/></g><polygon points="792.8,315.9 808.4,318.7 808.4,316.7 792.8,313.9" fill="#0A0B0C"/><polygon points="815.0,313.3 808.4,318.7 808.4,316.7 815.0,311.3" fill="#08090A"/><polygon points="799.4,308.6 815.0,311.3 808.4,316.7 792.8,313.9" fill="#0E0F11"/><g><polygon points="811.1,319.1 826.7,321.9 826.7,296.1 811.1,293.4" fill="#1C1E21"/><polygon points="833.3,316.5 826.7,321.9 826.7,296.1 833.3,290.8" fill="#151618"/><polygon points="817.7,288.1 833.3,290.8 826.7,296.1 811.1,293.4" fill="#2A2C30"/></g><g><polygon points="829.4,322.3 845.0,325.1 845.0,269.7 829.4,267.0" fill="#80868E"/><polygon points="851.6,319.7 845.0,325.1 845.0,269.7 851.6,264.4" fill="#5F646B"/><polygon points="836.0,261.6 851.6,264.4 845.0,269.7 829.4,267.0" fill="#B4B9C0"/></g><g><polygon points="847.7,325.5 863.3,328.3 863.3,274.3 847.7,271.5" fill="#80868E"/><polygon points="869.9,322.9 863.3,328.3 863.3,274.3 869.9,268.9" fill="#5F646B"/><polygon points="854.3,266.2 869.9,268.9 863.3,274.3 847.7,271.5" fill="#B4B9C0"/></g><g><polygon points="866.0,328.7 881.6,331.4 881.6,293.2 866.0,290.5" fill="#3E4248"/><polygon points="888.2,326.1 881.6,331.4 881.6,293.2 888.2,287.9" fill="#2F3236"/><polygon points="872.6,285.2 888.2,287.9 881.6,293.2 866.0,290.5" fill="#5A5F66"/></g><g><polygon points="884.3,331.9 899.9,334.7 899.9,314.4 884.3,311.7" fill="#1C1E21"/><polygon points="906.5,329.3 899.9,334.7 899.9,314.4 906.5,309.1" fill="#151618"/><polygon points="890.9,306.4 906.5,309.1 899.9,314.4 884.3,311.7" fill="#2A2C30"/></g><g><polygon points="902.6,335.1 918.2,337.9 918.2,314.7 902.6,312.0" fill="#1C1E21"/><polygon points="924.8,332.5 918.2,337.9 918.2,314.7 924.8,309.4" fill="#151618"/><polygon points="909.2,306.7 924.8,309.4 918.2,314.7 902.6,312.0" fill="#2A2C30"/></g><g><polygon points="920.9,338.3 936.5,341.1 936.5,320.8 920.9,318.1" fill="#1C1E21"/><polygon points="943.1,335.7 936.5,341.1 936.5,320.8 943.1,315.5" fill="#151618"/><polygon points="927.5,312.8 943.1,315.5 936.5,320.8 920.9,318.1" fill="#2A2C30"/></g><g><polygon points="939.2,341.5 954.8,344.3 954.8,293.1 939.2,290.4" fill="#80868E"/><polygon points="961.4,338.9 954.8,344.3 954.8,293.1 961.4,287.8" fill="#5F646B"/><polygon points="945.8,285.1 961.4,287.8 954.8,293.1 939.2,290.4" fill="#B4B9C0"/></g><g><polygon points="957.5,344.7 973.1,347.4 973.1,315.0 957.5,312.3" fill="#3E4248"/><polygon points="979.7,342.1 973.1,347.4 973.1,315.0 979.7,309.7" fill="#2F3236"/><polygon points="964.1,306.9 979.7,309.7 973.1,315.0 957.5,312.3" fill="#5A5F66"/></g><g><polygon points="975.8,347.9 991.4,350.7 991.4,312.4 975.8,309.7" fill="#3E4248"/><polygon points="998.0,345.3 991.4,350.7 991.4,312.4 998.0,307.1" fill="#2F3236"/><polygon points="982.4,304.4 998.0,307.1 991.4,312.4 975.8,309.7" fill="#5A5F66"/></g><g><polygon points="994.1,351.1 1009.7,353.9 1009.7,315.6 994.1,312.9" fill="#3E4248"/><polygon points="1016.3,348.5 1009.7,353.9 1009.7,315.6 1016.3,310.3" fill="#2F3236"/><polygon points="1000.7,307.6 1016.3,310.3 1009.7,315.6 994.1,312.9" fill="#5A5F66"/></g><g><polygon points="1012.4,354.3 1028.0,357.1 1028.0,308.9 1012.4,306.2" fill="#80868E"/><polygon points="1034.6,351.7 1028.0,357.1 1028.0,308.9 1034.6,303.6" fill="#5F646B"/><polygon points="1019.0,300.9 1034.6,303.6 1028.0,308.9 1012.4,306.2" fill="#B4B9C0"/></g><g><polygon points="1030.7,357.5 1046.3,360.3 1046.3,265.1 1030.7,262.4" fill="#B00C14"/><polygon points="1052.9,354.9 1046.3,360.3 1046.3,265.1 1052.9,259.8" fill="#7E0910"/><polygon points="1037.3,257.1 1052.9,259.8 1046.3,265.1 1030.7,262.4" fill="#FF2A2A" filter="url(#glow)"/></g><g><polygon points="1049.0,360.7 1064.6,363.4 1064.6,306.7 1049.0,304.0" fill="#80868E"/><polygon points="1071.2,358.1 1064.6,363.4 1064.6,306.7 1071.2,301.4" fill="#5F646B"/><polygon points="1055.6,298.7 1071.2,301.4 1064.6,306.7 1049.0,304.0" fill="#B4B9C0"/></g><polygon points="89.4,200.8 105.0,203.6 105.0,201.6 89.4,198.8" fill="#0A0B0C"/><polygon points="111.6,198.2 105.0,203.6 105.0,201.6 111.6,196.2" fill="#08090A"/><polygon points="96.0,193.5 111.6,196.2 105.0,201.6 89.4,198.8" fill="#0E0F11"/><polygon points="107.7,204.0 123.3,206.8 123.3,204.8 107.7,202.0" fill="#0A0B0C"/><polygon points="129.9,201.4 123.3,206.8 123.3,204.8 129.9,199.4" fill="#08090A"/><polygon points="114.3,196.7 129.9,199.4 123.3,204.8 107.7,202.0" fill="#0E0F11"/><polygon points="126.0,207.2 141.6,210.0 141.6,208.0 126.0,205.2" fill="#0A0B0C"/><polygon points="148.2,204.6 141.6,210.0 141.6,208.0 148.2,202.6" fill="#08090A"/><polygon points="132.6,199.9 148.2,202.6 141.6,208.0 126.0,205.2" fill="#0E0F11"/><polygon points="144.3,210.4 159.9,213.2 159.9,211.2 144.3,208.4" fill="#0A0B0C"/><polygon points="166.5,207.8 159.9,213.2 159.9,211.2 166.5,205.8" fill="#08090A"/><polygon points="150.9,203.1 166.5,205.8 159.9,211.2 144.3,208.4" fill="#0E0F11"/><g><polygon points="162.6,213.6 178.2,216.4 178.2,193.2 162.6,190.5" fill="#1C1E21"/><polygon points="184.8,211.0 178.2,216.4 178.2,193.2 184.8,187.9" fill="#151618"/><polygon points="169.2,185.2 184.8,187.9 178.2,193.2 162.6,190.5" fill="#2A2C30"/></g><polygon points="180.9,216.8 196.5,219.6 196.5,217.6 180.9,214.8" fill="#0A0B0C"/><polygon points="203.1,214.2 196.5,219.6 196.5,217.6 203.1,212.2" fill="#08090A"/><polygon points="187.5,209.5 203.1,212.2 196.5,217.6 180.9,214.8" fill="#0E0F11"/><polygon points="199.2,220.0 214.8,222.8 214.8,220.8 199.2,218.0" fill="#0A0B0C"/><polygon points="221.4,217.4 214.8,222.8 214.8,220.8 221.4,215.4" fill="#08090A"/><polygon points="205.8,212.7 221.4,215.4 214.8,220.8 199.2,218.0" fill="#0E0F11"/><polygon points="217.5,223.2 233.1,226.0 233.1,224.0 217.5,221.2" fill="#0A0B0C"/><polygon points="239.7,220.6 233.1,226.0 233.1,224.0 239.7,218.6" fill="#08090A"/><polygon points="224.1,215.9 239.7,218.6 233.1,224.0 217.5,221.2" fill="#0E0F11"/><g><polygon points="235.8,226.4 251.4,229.2 251.4,212.2 235.8,209.5" fill="#1C1E21"/><polygon points="258.0,223.8 251.4,229.2 251.4,212.2 258.0,206.9" fill="#151618"/><polygon points="242.4,204.2 258.0,206.9 251.4,212.2 235.8,209.5" fill="#2A2C30"/></g><polygon points="254.1,229.6 269.7,232.4 269.7,230.4 254.1,227.6" fill="#0A0B0C"/><polygon points="276.3,227.0 269.7,232.4 269.7,230.4 276.3,225.0" fill="#08090A"/><polygon points="260.7,222.3 276.3,225.0 269.7,230.4 254.1,227.6" fill="#0E0F11"/><polygon points="272.4,232.8 288.0,235.6 288.0,233.6 272.4,230.8" fill="#0A0B0C"/><polygon points="294.6,230.2 288.0,235.6 288.0,233.6 294.6,228.2" fill="#08090A"/><polygon points="279.0,225.5 294.6,228.2 288.0,233.6 272.4,230.8" fill="#0E0F11"/><polygon points="290.7,236.0 306.3,238.8 306.3,236.8 290.7,234.0" fill="#0A0B0C"/><polygon points="312.9,233.4 306.3,238.8 306.3,236.8 312.9,231.4" fill="#08090A"/><polygon points="297.3,228.7 312.9,231.4 306.3,236.8 290.7,234.0" fill="#0E0F11"/><polygon points="309.0,239.2 324.6,242.0 324.6,240.0 309.0,237.2" fill="#0A0B0C"/><polygon points="331.2,236.6 324.6,242.0 324.6,240.0 331.2,234.6" fill="#08090A"/><polygon points="315.6,231.9 331.2,234.6 324.6,240.0 309.0,237.2" fill="#0E0F11"/><polygon points="327.3,242.4 342.9,245.2 342.9,243.2 327.3,240.4" fill="#0A0B0C"/><polygon points="349.5,239.8 342.9,245.2 342.9,243.2 349.5,237.8" fill="#08090A"/><polygon points="333.9,235.1 349.5,237.8 342.9,243.2 327.3,240.4" fill="#0E0F11"/><polygon points="345.6,245.6 361.2,248.4 361.2,246.4 345.6,243.6" fill="#0A0B0C"/><polygon points="367.8,243.0 361.2,248.4 361.2,246.4 367.8,241.0" fill="#08090A"/><polygon points="352.2,238.3 367.8,241.0 361.2,246.4 345.6,243.6" fill="#0E0F11"/><polygon points="363.9,248.8 379.5,251.6 379.5,249.6 363.9,246.8" fill="#0A0B0C"/><polygon points="386.1,246.2 379.5,251.6 379.5,249.6 386.1,244.2" fill="#08090A"/><polygon points="370.5,241.5 386.1,244.2 379.5,249.6 363.9,246.8" fill="#0E0F11"/><polygon points="382.2,252.0 397.8,254.8 397.8,252.8 382.2,250.0" fill="#0A0B0C"/><polygon points="404.4,249.4 397.8,254.8 397.8,252.8 404.4,247.4" fill="#08090A"/><polygon points="388.8,244.7 404.4,247.4 397.8,252.8 382.2,250.0" fill="#0E0F11"/><polygon points="400.5,255.2 416.1,257.9 416.1,255.9 400.5,253.2" fill="#0A0B0C"/><polygon points="422.7,252.6 416.1,257.9 416.1,255.9 422.7,250.6" fill="#08090A"/><polygon points="407.1,247.9 422.7,250.6 416.1,255.9 400.5,253.2" fill="#0E0F11"/><polygon points="418.8,258.4 434.4,261.1 434.4,259.1 418.8,256.4" fill="#0A0B0C"/><polygon points="441.0,255.8 434.4,261.1 434.4,259.1 441.0,253.8" fill="#08090A"/><polygon points="425.4,251.1 441.0,253.8 434.4,259.1 418.8,256.4" fill="#0E0F11"/><g><polygon points="437.1,261.6 452.7,264.4 452.7,247.4 437.1,244.7" fill="#1C1E21"/><polygon points="459.3,259.0 452.7,264.4 452.7,247.4 459.3,242.1" fill="#151618"/><polygon points="443.7,239.4 459.3,242.1 452.7,247.4 437.1,244.7" fill="#2A2C30"/></g><g><polygon points="455.4,264.8 471.0,267.6 471.0,220.9 455.4,218.2" fill="#3E4248"/><polygon points="477.6,262.2 471.0,267.6 471.0,220.9 477.6,215.6" fill="#2F3236"/><polygon points="462.0,212.9 477.6,215.6 471.0,220.9 455.4,218.2" fill="#5A5F66"/></g><g><polygon points="473.7,268.0 489.3,270.8 489.3,253.8 473.7,251.1" fill="#1C1E21"/><polygon points="495.9,265.4 489.3,270.8 489.3,253.8 495.9,248.5" fill="#151618"/><polygon points="480.3,245.8 495.9,248.5 489.3,253.8 473.7,251.1" fill="#2A2C30"/></g><g><polygon points="492.0,271.2 507.6,273.9 507.6,241.5 492.0,238.8" fill="#3E4248"/><polygon points="514.2,268.6 507.6,273.9 507.6,241.5 514.2,236.2" fill="#2F3236"/><polygon points="498.6,233.4 514.2,236.2 507.6,241.5 492.0,238.8" fill="#5A5F66"/></g><polygon points="510.3,274.4 525.9,277.2 525.9,275.2 510.3,272.4" fill="#0A0B0C"/><polygon points="532.5,271.8 525.9,277.2 525.9,275.2 532.5,269.8" fill="#08090A"/><polygon points="516.9,267.1 532.5,269.8 525.9,275.2 510.3,272.4" fill="#0E0F11"/><g><polygon points="528.6,277.6 544.2,280.4 544.2,267.5 528.6,264.7" fill="#1C1E21"/><polygon points="550.8,275.0 544.2,280.4 544.2,267.5 550.8,262.1" fill="#151618"/><polygon points="535.2,259.4 550.8,262.1 544.2,267.5 528.6,264.7" fill="#2A2C30"/></g><polygon points="546.9,280.8 562.5,283.6 562.5,281.6 546.9,278.8" fill="#0A0B0C"/><polygon points="569.1,278.2 562.5,283.6 562.5,281.6 569.1,276.2" fill="#08090A"/><polygon points="553.5,273.5 569.1,276.2 562.5,281.6 546.9,278.8" fill="#0E0F11"/><polygon points="565.2,284.0 580.8,286.8 580.8,284.8 565.2,282.0" fill="#0A0B0C"/><polygon points="587.4,281.4 580.8,286.8 580.8,284.8 587.4,279.4" fill="#08090A"/><polygon points="571.8,276.7 587.4,279.4 580.8,284.8 565.2,282.0" fill="#0E0F11"/><polygon points="583.5,287.2 599.1,289.9 599.1,287.9 583.5,285.2" fill="#0A0B0C"/><polygon points="605.7,284.6 599.1,289.9 599.1,287.9 605.7,282.6" fill="#08090A"/><polygon points="590.1,279.9 605.7,282.6 599.1,287.9 583.5,285.2" fill="#0E0F11"/><polygon points="601.8,290.4 617.4,293.2 617.4,291.2 601.8,288.4" fill="#0A0B0C"/><polygon points="624.0,287.8 617.4,293.2 617.4,291.2 624.0,285.8" fill="#08090A"/><polygon points="608.4,283.1 624.0,285.8 617.4,291.2 601.8,288.4" fill="#0E0F11"/><polygon points="620.1,293.6 635.7,296.4 635.7,294.4 620.1,291.6" fill="#0A0B0C"/><polygon points="642.3,291.0 635.7,296.4 635.7,294.4 642.3,289.0" fill="#08090A"/><polygon points="626.7,286.3 642.3,289.0 635.7,294.4 620.1,291.6" fill="#0E0F11"/><g><polygon points="638.4,296.8 654.0,299.6 654.0,282.6 638.4,279.9" fill="#1C1E21"/><polygon points="660.6,294.2 654.0,299.6 654.0,282.6 660.6,277.3" fill="#151618"/><polygon points="645.0,274.6 660.6,277.3 654.0,282.6 638.4,279.9" fill="#2A2C30"/></g><polygon points="656.7,300.0 672.3,302.8 672.3,300.8 656.7,298.0" fill="#0A0B0C"/><polygon points="678.9,297.4 672.3,302.8 672.3,300.8 678.9,295.4" fill="#08090A"/><polygon points="663.3,292.7 678.9,295.4 672.3,300.8 656.7,298.0" fill="#0E0F11"/><g><polygon points="675.0,303.2 690.6,305.9 690.6,271.5 675.0,268.8" fill="#3E4248"/><polygon points="697.2,300.6 690.6,305.9 690.6,271.5 697.2,266.2" fill="#2F3236"/><polygon points="681.6,263.4 697.2,266.2 690.6,271.5 675.0,268.8" fill="#5A5F66"/></g><polygon points="693.3,306.4 708.9,309.2 708.9,307.2 693.3,304.4" fill="#0A0B0C"/><polygon points="715.5,303.8 708.9,309.2 708.9,307.2 715.5,301.8" fill="#08090A"/><polygon points="699.9,299.1 715.5,301.8 708.9,307.2 693.3,304.4" fill="#0E0F11"/><g><polygon points="711.6,309.6 727.2,312.4 727.2,284.3 711.6,281.5" fill="#1C1E21"/><polygon points="733.8,307.0 727.2,312.4 727.2,284.3 733.8,278.9" fill="#151618"/><polygon points="718.2,276.2 733.8,278.9 727.2,284.3 711.6,281.5" fill="#2A2C30"/></g><polygon points="729.9,312.8 745.5,315.6 745.5,313.6 729.9,310.8" fill="#0A0B0C"/><polygon points="752.1,310.2 745.5,315.6 745.5,313.6 752.1,308.2" fill="#08090A"/><polygon points="736.5,305.5 752.1,308.2 745.5,313.6 729.9,310.8" fill="#0E0F11"/><g><polygon points="748.2,316.0 763.8,318.8 763.8,293.0 748.2,290.3" fill="#1C1E21"/><polygon points="770.4,313.4 763.8,318.8 763.8,293.0 770.4,287.7" fill="#151618"/><polygon points="754.8,285.0 770.4,287.7 763.8,293.0 748.2,290.3" fill="#2A2C30"/></g><polygon points="766.5,319.2 782.1,321.9 782.1,319.9 766.5,317.2" fill="#0A0B0C"/><polygon points="788.7,316.6 782.1,321.9 782.1,319.9 788.7,314.6" fill="#08090A"/><polygon points="773.1,311.9 788.7,314.6 782.1,319.9 766.5,317.2" fill="#0E0F11"/><g><polygon points="784.8,322.4 800.4,325.2 800.4,304.9 784.8,302.2" fill="#1C1E21"/><polygon points="807.0,319.8 800.4,325.2 800.4,304.9 807.0,299.6" fill="#151618"/><polygon points="791.4,296.9 807.0,299.6 800.4,304.9 784.8,302.2" fill="#2A2C30"/></g><g><polygon points="803.1,325.6 818.7,328.4 818.7,311.4 803.1,308.7" fill="#1C1E21"/><polygon points="825.3,323.0 818.7,328.4 818.7,311.4 825.3,306.1" fill="#151618"/><polygon points="809.7,303.4 825.3,306.1 818.7,311.4 803.1,308.7" fill="#2A2C30"/></g><g><polygon points="821.4,328.8 837.0,331.6 837.0,226.6 821.4,223.8" fill="#B00C14"/><polygon points="843.6,326.2 837.0,331.6 837.0,226.6 843.6,221.2" fill="#7E0910"/><polygon points="828.0,218.5 843.6,221.2 837.0,226.6 821.4,223.8" fill="#FF2A2A" filter="url(#glow)"/></g><g><polygon points="839.7,332.0 855.3,334.8 855.3,304.4 839.7,301.7" fill="#3E4248"/><polygon points="861.9,329.4 855.3,334.8 855.3,304.4 861.9,299.1" fill="#2F3236"/><polygon points="846.3,296.4 861.9,299.1 855.3,304.4 839.7,301.7" fill="#5A5F66"/></g><g><polygon points="858.0,335.2 873.6,337.9 873.6,292.9 858.0,290.2" fill="#3E4248"/><polygon points="880.2,332.6 873.6,337.9 873.6,292.9 880.2,287.6" fill="#2F3236"/><polygon points="864.6,284.9 880.2,287.6 873.6,292.9 858.0,290.2" fill="#5A5F66"/></g><g><polygon points="876.3,338.4 891.9,341.2 891.9,313.1 876.3,310.3" fill="#1C1E21"/><polygon points="898.5,335.8 891.9,341.2 891.9,313.1 898.5,307.7" fill="#151618"/><polygon points="882.9,305.0 898.5,307.7 891.9,313.1 876.3,310.3" fill="#2A2C30"/></g><g><polygon points="894.6,341.6 910.2,344.4 910.2,291.8 894.6,289.1" fill="#80868E"/><polygon points="916.8,339.0 910.2,344.4 910.2,291.8 916.8,286.5" fill="#5F646B"/><polygon points="901.2,283.7 916.8,286.5 910.2,291.8 894.6,289.1" fill="#B4B9C0"/></g><g><polygon points="912.9,344.8 928.5,347.6 928.5,330.6 912.9,327.9" fill="#1C1E21"/><polygon points="935.1,342.2 928.5,347.6 928.5,330.6 935.1,325.3" fill="#151618"/><polygon points="919.5,322.6 935.1,325.3 928.5,330.6 912.9,327.9" fill="#2A2C30"/></g><g><polygon points="931.2,348.0 946.8,350.8 946.8,330.5 931.2,327.8" fill="#1C1E21"/><polygon points="953.4,345.4 946.8,350.8 946.8,330.5 953.4,325.2" fill="#151618"/><polygon points="937.8,322.5 953.4,325.2 946.8,330.5 931.2,327.8" fill="#2A2C30"/></g><g><polygon points="949.5,351.2 965.1,353.9 965.1,312.2 949.5,309.5" fill="#3E4248"/><polygon points="971.7,348.6 965.1,353.9 965.1,312.2 971.7,306.9" fill="#2F3236"/><polygon points="956.1,304.2 971.7,306.9 965.1,312.2 949.5,309.5" fill="#5A5F66"/></g><g><polygon points="967.8,354.4 983.4,357.2 983.4,336.9 967.8,334.2" fill="#1C1E21"/><polygon points="990.0,351.8 983.4,357.2 983.4,336.9 990.0,331.6" fill="#151618"/><polygon points="974.4,328.9 990.0,331.6 983.4,336.9 967.8,334.2" fill="#2A2C30"/></g><g><polygon points="986.1,357.6 1001.7,360.4 1001.7,343.4 986.1,340.7" fill="#1C1E21"/><polygon points="1008.3,355.0 1001.7,360.4 1001.7,343.4 1008.3,338.1" fill="#151618"/><polygon points="992.7,335.4 1008.3,338.1 1001.7,343.4 986.1,340.7" fill="#2A2C30"/></g><g><polygon points="1004.4,360.8 1020.0,363.6 1020.0,329.1 1004.4,326.4" fill="#3E4248"/><polygon points="1026.6,358.2 1020.0,363.6 1020.0,329.1 1026.6,323.8" fill="#2F3236"/><polygon points="1011.0,321.0 1026.6,323.8 1020.0,329.1 1004.4,326.4" fill="#5A5F66"/></g><g><polygon points="1022.7,364.0 1038.3,366.8 1038.3,278.3 1022.7,275.6" fill="#B00C14"/><polygon points="1044.9,361.4 1038.3,366.8 1038.3,278.3 1044.9,273.0" fill="#7E0910"/><polygon points="1029.3,270.3 1044.9,273.0 1038.3,278.3 1022.7,275.6" fill="#FF2A2A" filter="url(#glow)"/></g><g><polygon points="1041.0,367.2 1056.6,369.9 1056.6,323.3 1041.0,320.6" fill="#3E4248"/><polygon points="1063.2,364.6 1056.6,369.9 1056.6,323.3 1063.2,318.0" fill="#2F3236"/><polygon points="1047.6,315.3 1063.2,318.0 1056.6,323.3 1041.0,320.6" fill="#5A5F66"/></g><polygon points="81.4,207.3 97.0,210.1 97.0,208.1 81.4,205.3" fill="#0A0B0C"/><polygon points="103.6,204.7 97.0,210.1 97.0,208.1 103.6,202.7" fill="#08090A"/><polygon points="88.0,200.0 103.6,202.7 97.0,208.1 81.4,205.3" fill="#0E0F11"/><polygon points="99.7,210.5 115.3,213.2 115.3,211.2 99.7,208.5" fill="#0A0B0C"/><polygon points="121.9,207.9 115.3,213.2 115.3,211.2 121.9,205.9" fill="#08090A"/><polygon points="106.3,203.2 121.9,205.9 115.3,211.2 99.7,208.5" fill="#0E0F11"/><polygon points="118.0,213.7 133.6,216.5 133.6,214.5 118.0,211.7" fill="#0A0B0C"/><polygon points="140.2,211.1 133.6,216.5 133.6,214.5 140.2,209.1" fill="#08090A"/><polygon points="124.6,206.4 140.2,209.1 133.6,214.5 118.0,211.7" fill="#0E0F11"/><polygon points="136.3,216.9 151.9,219.7 151.9,217.7 136.3,214.9" fill="#0A0B0C"/><polygon points="158.5,214.3 151.9,219.7 151.9,217.7 158.5,212.3" fill="#08090A"/><polygon points="142.9,209.6 158.5,212.3 151.9,217.7 136.3,214.9" fill="#0E0F11"/><polygon points="154.6,220.1 170.2,222.9 170.2,220.9 154.6,218.1" fill="#0A0B0C"/><polygon points="176.8,217.5 170.2,222.9 170.2,220.9 176.8,215.5" fill="#08090A"/><polygon points="161.2,212.8 176.8,215.5 170.2,220.9 154.6,218.1" fill="#0E0F11"/><polygon points="172.9,223.3 188.5,226.1 188.5,224.1 172.9,221.3" fill="#0A0B0C"/><polygon points="195.1,220.7 188.5,226.1 188.5,224.1 195.1,218.7" fill="#08090A"/><polygon points="179.5,216.0 195.1,218.7 188.5,224.1 172.9,221.3" fill="#0E0F11"/><polygon points="191.2,226.5 206.8,229.2 206.8,227.2 191.2,224.5" fill="#0A0B0C"/><polygon points="213.4,223.9 206.8,229.2 206.8,227.2 213.4,221.9" fill="#08090A"/><polygon points="197.8,219.2 213.4,221.9 206.8,227.2 191.2,224.5" fill="#0E0F11"/><polygon points="209.5,229.7 225.1,232.5 225.1,230.5 209.5,227.7" fill="#0A0B0C"/><polygon points="231.7,227.1 225.1,232.5 225.1,230.5 231.7,225.1" fill="#08090A"/><polygon points="216.1,222.4 231.7,225.1 225.1,230.5 209.5,227.7" fill="#0E0F11"/><polygon points="227.8,232.9 243.4,235.7 243.4,233.7 227.8,230.9" fill="#0A0B0C"/><polygon points="250.0,230.3 243.4,235.7 243.4,233.7 250.0,228.3" fill="#08090A"/><polygon points="234.4,225.6 250.0,228.3 243.4,233.7 227.8,230.9" fill="#0E0F11"/><polygon points="246.1,236.1 261.7,238.9 261.7,236.9 246.1,234.1" fill="#0A0B0C"/><polygon points="268.3,233.5 261.7,238.9 261.7,236.9 268.3,231.5" fill="#08090A"/><polygon points="252.7,228.8 268.3,231.5 261.7,236.9 246.1,234.1" fill="#0E0F11"/><polygon points="264.4,239.3 280.0,242.1 280.0,240.1 264.4,237.3" fill="#0A0B0C"/><polygon points="286.6,236.7 280.0,242.1 280.0,240.1 286.6,234.7" fill="#08090A"/><polygon points="271.0,232.0 286.6,234.7 280.0,240.1 264.4,237.3" fill="#0E0F11"/><polygon points="282.7,242.5 298.3,245.2 298.3,243.2 282.7,240.5" fill="#0A0B0C"/><polygon points="304.9,239.9 298.3,245.2 298.3,243.2 304.9,237.9" fill="#08090A"/><polygon points="289.3,235.2 304.9,237.9 298.3,243.2 282.7,240.5" fill="#0E0F11"/><polygon points="301.0,245.7 316.6,248.5 316.6,246.5 301.0,243.7" fill="#0A0B0C"/><polygon points="323.2,243.1 316.6,248.5 316.6,246.5 323.2,241.1" fill="#08090A"/><polygon points="307.6,238.4 323.2,241.1 316.6,246.5 301.0,243.7" fill="#0E0F11"/><polygon points="319.3,248.9 334.9,251.7 334.9,249.7 319.3,246.9" fill="#0A0B0C"/><polygon points="341.5,246.3 334.9,251.7 334.9,249.7 341.5,244.3" fill="#08090A"/><polygon points="325.9,241.6 341.5,244.3 334.9,249.7 319.3,246.9" fill="#0E0F11"/><polygon points="337.6,252.1 353.2,254.9 353.2,252.9 337.6,250.1" fill="#0A0B0C"/><polygon points="359.8,249.5 353.2,254.9 353.2,252.9 359.8,247.5" fill="#08090A"/><polygon points="344.2,244.8 359.8,247.5 353.2,252.9 337.6,250.1" fill="#0E0F11"/><polygon points="355.9,255.3 371.5,258.1 371.5,256.1 355.9,253.3" fill="#0A0B0C"/><polygon points="378.1,252.7 371.5,258.1 371.5,256.1 378.1,250.7" fill="#08090A"/><polygon points="362.5,248.0 378.1,250.7 371.5,256.1 355.9,253.3" fill="#0E0F11"/><g><polygon points="374.2,258.5 389.8,261.2 389.8,244.3 374.2,241.6" fill="#1C1E21"/><polygon points="396.4,255.9 389.8,261.2 389.8,244.3 396.4,239.0" fill="#151618"/><polygon points="380.8,236.3 396.4,239.0 389.8,244.3 374.2,241.6" fill="#2A2C30"/></g><polygon points="392.5,261.7 408.1,264.4 408.1,262.4 392.5,259.7" fill="#0A0B0C"/><polygon points="414.7,259.1 408.1,264.4 408.1,262.4 414.7,257.1" fill="#08090A"/><polygon points="399.1,254.4 414.7,257.1 408.1,262.4 392.5,259.7" fill="#0E0F11"/><polygon points="410.8,264.9 426.4,267.7 426.4,265.7 410.8,262.9" fill="#0A0B0C"/><polygon points="433.0,262.3 426.4,267.7 426.4,265.7 433.0,260.3" fill="#08090A"/><polygon points="417.4,257.6 433.0,260.3 426.4,265.7 410.8,262.9" fill="#0E0F11"/><g><polygon points="429.1,268.1 444.7,270.9 444.7,238.4 429.1,235.7" fill="#3E4248"/><polygon points="451.3,265.5 444.7,270.9 444.7,238.4 451.3,233.1" fill="#2F3236"/><polygon points="435.7,230.3 451.3,233.1 444.7,238.4 429.1,235.7" fill="#5A5F66"/></g><g><polygon points="447.4,271.3 463.0,274.1 463.0,243.7 447.4,241.0" fill="#3E4248"/><polygon points="469.6,268.7 463.0,274.1 463.0,243.7 469.6,238.4" fill="#2F3236"/><polygon points="454.0,235.7 469.6,238.4 463.0,243.7 447.4,241.0" fill="#5A5F66"/></g><polygon points="465.7,274.5 481.3,277.2 481.3,275.2 465.7,272.5" fill="#0A0B0C"/><polygon points="487.9,271.9 481.3,277.2 481.3,275.2 487.9,269.9" fill="#08090A"/><polygon points="472.3,267.2 487.9,269.9 481.3,275.2 465.7,272.5" fill="#0E0F11"/><g><polygon points="484.0,277.7 499.6,280.4 499.6,254.7 484.0,252.0" fill="#1C1E21"/><polygon points="506.2,275.1 499.6,280.4 499.6,254.7 506.2,249.4" fill="#151618"/><polygon points="490.6,246.7 506.2,249.4 499.6,254.7 484.0,252.0" fill="#2A2C30"/></g><polygon points="502.3,280.9 517.9,283.7 517.9,281.7 502.3,278.9" fill="#0A0B0C"/><polygon points="524.5,278.3 517.9,283.7 517.9,281.7 524.5,276.3" fill="#08090A"/><polygon points="508.9,273.6 524.5,276.3 517.9,281.7 502.3,278.9" fill="#0E0F11"/><polygon points="520.6,284.1 536.2,286.9 536.2,284.9 520.6,282.1" fill="#0A0B0C"/><polygon points="542.8,281.5 536.2,286.9 536.2,284.9 542.8,279.5" fill="#08090A"/><polygon points="527.2,276.8 542.8,279.5 536.2,284.9 520.6,282.1" fill="#0E0F11"/><polygon points="538.9,287.3 554.5,290.1 554.5,288.1 538.9,285.3" fill="#0A0B0C"/><polygon points="561.1,284.7 554.5,290.1 554.5,288.1 561.1,282.7" fill="#08090A"/><polygon points="545.5,280.0 561.1,282.7 554.5,288.1 538.9,285.3" fill="#0E0F11"/><polygon points="557.2,290.5 572.8,293.2 572.8,291.2 557.2,288.5" fill="#0A0B0C"/><polygon points="579.4,287.9 572.8,293.2 572.8,291.2 579.4,285.9" fill="#08090A"/><polygon points="563.8,283.2 579.4,285.9 572.8,291.2 557.2,288.5" fill="#0E0F11"/><polygon points="575.5,293.7 591.1,296.4 591.1,294.4 575.5,291.7" fill="#0A0B0C"/><polygon points="597.7,291.1 591.1,296.4 591.1,294.4 597.7,289.1" fill="#08090A"/><polygon points="582.1,286.4 597.7,289.1 591.1,294.4 575.5,291.7" fill="#0E0F11"/><g><polygon points="593.8,296.9 609.4,299.7 609.4,273.9 593.8,271.2" fill="#1C1E21"/><polygon points="616.0,294.3 609.4,299.7 609.4,273.9 616.0,268.6" fill="#151618"/><polygon points="600.4,265.9 616.0,268.6 609.4,273.9 593.8,271.2" fill="#2A2C30"/></g><g><polygon points="612.1,300.1 627.7,302.9 627.7,282.6 612.1,279.9" fill="#1C1E21"/><polygon points="634.3,297.5 627.7,302.9 627.7,282.6 634.3,277.3" fill="#151618"/><polygon points="618.7,274.6 634.3,277.3 627.7,282.6 612.1,279.9" fill="#2A2C30"/></g><g><polygon points="630.4,303.3 646.0,306.1 646.0,282.9 630.4,280.2" fill="#1C1E21"/><polygon points="652.6,300.7 646.0,306.1 646.0,282.9 652.6,277.6" fill="#151618"/><polygon points="637.0,274.9 652.6,277.6 646.0,282.9 630.4,280.2" fill="#2A2C30"/></g><g><polygon points="648.7,306.5 664.3,309.2 664.3,281.2 648.7,278.4" fill="#1C1E21"/><polygon points="670.9,303.9 664.3,309.2 664.3,281.2 670.9,275.8" fill="#151618"/><polygon points="655.3,273.1 670.9,275.8 664.3,281.2 648.7,278.4" fill="#2A2C30"/></g><g><polygon points="667.0,309.7 682.6,312.4 682.6,299.6 667.0,296.8" fill="#1C1E21"/><polygon points="689.2,307.1 682.6,312.4 682.6,299.6 689.2,294.2" fill="#151618"/><polygon points="673.6,291.5 689.2,294.2 682.6,299.6 667.0,296.8" fill="#2A2C30"/></g><polygon points="685.3,312.9 700.9,315.7 700.9,313.7 685.3,310.9" fill="#0A0B0C"/><polygon points="707.5,310.3 700.9,315.7 700.9,313.7 707.5,308.3" fill="#08090A"/><polygon points="691.9,305.6 707.5,308.3 700.9,313.7 685.3,310.9" fill="#0E0F11"/><g><polygon points="703.6,316.1 719.2,318.9 719.2,301.9 703.6,299.2" fill="#1C1E21"/><polygon points="725.8,313.5 719.2,318.9 719.2,301.9 725.8,296.6" fill="#151618"/><polygon points="710.2,293.9 725.8,296.6 719.2,301.9 703.6,299.2" fill="#2A2C30"/></g><g><polygon points="721.9,319.3 737.5,322.1 737.5,298.9 721.9,296.2" fill="#1C1E21"/><polygon points="744.1,316.7 737.5,322.1 737.5,298.9 744.1,293.6" fill="#151618"/><polygon points="728.5,290.9 744.1,293.6 737.5,298.9 721.9,296.2" fill="#2A2C30"/></g><g><polygon points="740.2,322.5 755.8,325.2 755.8,312.4 740.2,309.6" fill="#1C1E21"/><polygon points="762.4,319.9 755.8,325.2 755.8,312.4 762.4,307.0" fill="#151618"/><polygon points="746.8,304.3 762.4,307.0 755.8,312.4 740.2,309.6" fill="#2A2C30"/></g><polygon points="758.5,325.7 774.1,328.4 774.1,326.4 758.5,323.7" fill="#0A0B0C"/><polygon points="780.7,323.1 774.1,328.4 774.1,326.4 780.7,321.1" fill="#08090A"/><polygon points="765.1,318.4 780.7,321.1 774.1,326.4 758.5,323.7" fill="#0E0F11"/><g><polygon points="776.8,328.9 792.4,331.7 792.4,288.2 776.8,285.5" fill="#3E4248"/><polygon points="799.0,326.3 792.4,331.7 792.4,288.2 799.0,282.9" fill="#2F3236"/><polygon points="783.4,280.2 799.0,282.9 792.4,288.2 776.8,285.5" fill="#5A5F66"/></g><g><polygon points="795.1,332.1 810.7,334.9 810.7,306.8 795.1,304.0" fill="#1C1E21"/><polygon points="817.3,329.5 810.7,334.9 810.7,306.8 817.3,301.4" fill="#151618"/><polygon points="801.7,298.7 817.3,301.4 810.7,306.8 795.1,304.0" fill="#2A2C30"/></g><g><polygon points="813.4,335.3 829.0,338.1 829.0,254.6 813.4,251.9" fill="#B00C14"/><polygon points="835.6,332.7 829.0,338.1 829.0,254.6 835.6,249.3" fill="#7E0910"/><polygon points="820.0,246.6 835.6,249.3 829.0,254.6 813.4,251.9" fill="#FF2A2A" filter="url(#glow)"/></g><g><polygon points="831.7,338.5 847.3,341.3 847.3,279.3 831.7,276.6" fill="#80868E"/><polygon points="853.9,335.9 847.3,341.3 847.3,279.3 853.9,274.0" fill="#5F646B"/><polygon points="838.3,271.2 853.9,274.0 847.3,279.3 831.7,276.6" fill="#B4B9C0"/></g><g><polygon points="850.0,341.7 865.6,344.4 865.6,269.5 850.0,266.8" fill="#80868E"/><polygon points="872.2,339.1 865.6,344.4 865.6,269.5 872.2,264.2" fill="#5F646B"/><polygon points="856.6,261.5 872.2,264.2 865.6,269.5 850.0,266.8" fill="#B4B9C0"/></g><g><polygon points="868.3,344.9 883.9,347.7 883.9,327.4 868.3,324.7" fill="#1C1E21"/><polygon points="890.5,342.3 883.9,347.7 883.9,327.4 890.5,322.1" fill="#151618"/><polygon points="874.9,319.4 890.5,322.1 883.9,327.4 868.3,324.7" fill="#2A2C30"/></g><g><polygon points="886.6,348.1 902.2,350.9 902.2,284.0 886.6,281.3" fill="#80868E"/><polygon points="908.8,345.5 902.2,350.9 902.2,284.0 908.8,278.6" fill="#5F646B"/><polygon points="893.2,275.9 908.8,278.6 902.2,284.0 886.6,281.3" fill="#B4B9C0"/></g><g><polygon points="904.9,351.3 920.5,354.1 920.5,330.9 904.9,328.2" fill="#1C1E21"/><polygon points="927.1,348.7 920.5,354.1 920.5,330.9 927.1,325.6" fill="#151618"/><polygon points="911.5,322.9 927.1,325.6 920.5,330.9 904.9,328.2" fill="#2A2C30"/></g><g><polygon points="923.2,354.5 938.8,357.3 938.8,337.0 923.2,334.3" fill="#1C1E21"/><polygon points="945.4,351.9 938.8,357.3 938.8,337.0 945.4,331.7" fill="#151618"/><polygon points="929.8,329.0 945.4,331.7 938.8,337.0 923.2,334.3" fill="#2A2C30"/></g><g><polygon points="941.5,357.7 957.1,360.4 957.1,343.5 941.5,340.8" fill="#1C1E21"/><polygon points="963.7,355.1 957.1,360.4 957.1,343.5 963.7,338.2" fill="#151618"/><polygon points="948.1,335.5 963.7,338.2 957.1,343.5 941.5,340.8" fill="#2A2C30"/></g><g><polygon points="959.8,360.9 975.4,363.7 975.4,346.7 959.8,344.0" fill="#1C1E21"/><polygon points="982.0,358.3 975.4,363.7 975.4,346.7 982.0,341.4" fill="#151618"/><polygon points="966.4,338.7 982.0,341.4 975.4,346.7 959.8,344.0" fill="#2A2C30"/></g><g><polygon points="978.1,364.1 993.7,366.9 993.7,349.9 978.1,347.2" fill="#1C1E21"/><polygon points="1000.3,361.5 993.7,366.9 993.7,349.9 1000.3,344.6" fill="#151618"/><polygon points="984.7,341.9 1000.3,344.6 993.7,349.9 978.1,347.2" fill="#2A2C30"/></g><g><polygon points="996.4,367.3 1012.0,370.1 1012.0,337.6 996.4,334.9" fill="#3E4248"/><polygon points="1018.6,364.7 1012.0,370.1 1012.0,337.6 1018.6,332.3" fill="#2F3236"/><polygon points="1003.0,329.5 1018.6,332.3 1012.0,337.6 996.4,334.9" fill="#5A5F66"/></g><g><polygon points="1014.7,370.5 1030.3,373.3 1030.3,336.9 1014.7,334.1" fill="#3E4248"/><polygon points="1036.9,367.9 1030.3,373.3 1030.3,336.9 1036.9,331.5" fill="#2F3236"/><polygon points="1021.3,328.8 1036.9,331.5 1030.3,336.9 1014.7,334.1" fill="#5A5F66"/></g><polygon points="73.4,213.8 89.0,216.6 89.0,214.6 73.4,211.8" fill="#0A0B0C"/><polygon points="95.6,211.2 89.0,216.6 89.0,214.6 95.6,209.2" fill="#08090A"/><polygon points="80.0,206.5 95.6,209.2 89.0,214.6 73.4,211.8" fill="#0E0F11"/><polygon points="91.7,217.0 107.3,219.8 107.3,217.8 91.7,215.0" fill="#0A0B0C"/><polygon points="113.9,214.4 107.3,219.8 107.3,217.8 113.9,212.4" fill="#08090A"/><polygon points="98.3,209.7 113.9,212.4 107.3,217.8 91.7,215.0" fill="#0E0F11"/><polygon points="110.0,220.2 125.6,223.0 125.6,221.0 110.0,218.2" fill="#0A0B0C"/><polygon points="132.2,217.6 125.6,223.0 125.6,221.0 132.2,215.6" fill="#08090A"/><polygon points="116.6,212.9 132.2,215.6 125.6,221.0 110.0,218.2" fill="#0E0F11"/><polygon points="128.3,223.4 143.9,226.2 143.9,224.2 128.3,221.4" fill="#0A0B0C"/><polygon points="150.5,220.8 143.9,226.2 143.9,224.2 150.5,218.8" fill="#08090A"/><polygon points="134.9,216.1 150.5,218.8 143.9,224.2 128.3,221.4" fill="#0E0F11"/><g><polygon points="146.6,226.6 162.2,229.4 162.2,199.0 146.6,196.3" fill="#3E4248"/><polygon points="168.8,224.0 162.2,229.4 162.2,199.0 168.8,193.7" fill="#2F3236"/><polygon points="153.2,191.0 168.8,193.7 162.2,199.0 146.6,196.3" fill="#5A5F66"/></g><g><polygon points="164.9,229.8 180.5,232.6 180.5,215.6 164.9,212.9" fill="#1C1E21"/><polygon points="187.1,227.2 180.5,232.6 180.5,215.6 187.1,210.3" fill="#151618"/><polygon points="171.5,207.6 187.1,210.3 180.5,215.6 164.9,212.9" fill="#2A2C30"/></g><polygon points="183.2,233.0 198.8,235.8 198.8,233.8 183.2,231.0" fill="#0A0B0C"/><polygon points="205.4,230.4 198.8,235.8 198.8,233.8 205.4,228.4" fill="#08090A"/><polygon points="189.8,225.7 205.4,228.4 198.8,233.8 183.2,231.0" fill="#0E0F11"/><polygon points="201.5,236.2 217.1,239.0 217.1,237.0 201.5,234.2" fill="#0A0B0C"/><polygon points="223.7,233.6 217.1,239.0 217.1,237.0 223.7,231.6" fill="#08090A"/><polygon points="208.1,228.9 223.7,231.6 217.1,237.0 201.5,234.2" fill="#0E0F11"/><polygon points="219.8,239.4 235.4,242.2 235.4,240.2 219.8,237.4" fill="#0A0B0C"/><polygon points="242.0,236.8 235.4,242.2 235.4,240.2 242.0,234.8" fill="#08090A"/><polygon points="226.4,232.1 242.0,234.8 235.4,240.2 219.8,237.4" fill="#0E0F11"/><polygon points="238.1,242.6 253.7,245.4 253.7,243.4 238.1,240.6" fill="#0A0B0C"/><polygon points="260.3,240.0 253.7,245.4 253.7,243.4 260.3,238.0" fill="#08090A"/><polygon points="244.7,235.3 260.3,238.0 253.7,243.4 238.1,240.6" fill="#0E0F11"/><g><polygon points="256.4,245.8 272.0,248.6 272.0,216.1 256.4,213.4" fill="#3E4248"/><polygon points="278.6,243.2 272.0,248.6 272.0,216.1 278.6,210.8" fill="#2F3236"/><polygon points="263.0,208.0 278.6,210.8 272.0,216.1 256.4,213.4" fill="#5A5F66"/></g><polygon points="274.7,249.0 290.3,251.8 290.3,249.8 274.7,247.0" fill="#0A0B0C"/><polygon points="296.9,246.4 290.3,251.8 290.3,249.8 296.9,244.4" fill="#08090A"/><polygon points="281.3,241.7 296.9,244.4 290.3,249.8 274.7,247.0" fill="#0E0F11"/><polygon points="293.0,252.2 308.6,255.0 308.6,253.0 293.0,250.2" fill="#0A0B0C"/><polygon points="315.2,249.6 308.6,255.0 308.6,253.0 315.2,247.6" fill="#08090A"/><polygon points="299.6,244.9 315.2,247.6 308.6,253.0 293.0,250.2" fill="#0E0F11"/><polygon points="311.3,255.4 326.9,258.1 326.9,256.1 311.3,253.4" fill="#0A0B0C"/><polygon points="333.5,252.8 326.9,258.1 326.9,256.1 333.5,250.8" fill="#08090A"/><polygon points="317.9,248.1 333.5,250.8 326.9,256.1 311.3,253.4" fill="#0E0F11"/><polygon points="329.6,258.6 345.2,261.4 345.2,259.4 329.6,256.6" fill="#0A0B0C"/><polygon points="351.8,256.0 345.2,261.4 345.2,259.4 351.8,254.0" fill="#08090A"/><polygon points="336.2,251.3 351.8,254.0 345.2,259.4 329.6,256.6" fill="#0E0F11"/><g><polygon points="347.9,261.8 363.5,264.6 363.5,236.5 347.9,233.7" fill="#1C1E21"/><polygon points="370.1,259.2 363.5,264.6 363.5,236.5 370.1,231.1" fill="#151618"/><polygon points="354.5,228.4 370.1,231.1 363.5,236.5 347.9,233.7" fill="#2A2C30"/></g><polygon points="366.2,265.0 381.8,267.8 381.8,265.8 366.2,263.0" fill="#0A0B0C"/><polygon points="388.4,262.4 381.8,267.8 381.8,265.8 388.4,260.4" fill="#08090A"/><polygon points="372.8,257.7 388.4,260.4 381.8,265.8 366.2,263.0" fill="#0E0F11"/><polygon points="384.5,268.2 400.1,270.9 400.1,268.9 384.5,266.2" fill="#0A0B0C"/><polygon points="406.7,265.6 400.1,270.9 400.1,268.9 406.7,263.6" fill="#08090A"/><polygon points="391.1,260.9 406.7,263.6 400.1,268.9 384.5,266.2" fill="#0E0F11"/><polygon points="402.8,271.4 418.4,274.2 418.4,272.2 402.8,269.4" fill="#0A0B0C"/><polygon points="425.0,268.8 418.4,274.2 418.4,272.2 425.0,266.8" fill="#08090A"/><polygon points="409.4,264.1 425.0,266.8 418.4,272.2 402.8,269.4" fill="#0E0F11"/><g><polygon points="421.1,274.6 436.7,277.4 436.7,244.9 421.1,242.2" fill="#3E4248"/><polygon points="443.3,272.0 436.7,277.4 436.7,244.9 443.3,239.6" fill="#2F3236"/><polygon points="427.7,236.8 443.3,239.6 436.7,244.9 421.1,242.2" fill="#5A5F66"/></g><g><polygon points="439.4,277.8 455.0,280.6 455.0,257.4 439.4,254.7" fill="#1C1E21"/><polygon points="461.6,275.2 455.0,280.6 455.0,257.4 461.6,252.1" fill="#151618"/><polygon points="446.0,249.4 461.6,252.1 455.0,257.4 439.4,254.7" fill="#2A2C30"/></g><polygon points="457.7,281.0 473.3,283.8 473.3,281.8 457.7,279.0" fill="#0A0B0C"/><polygon points="479.9,278.4 473.3,283.8 473.3,281.8 479.9,276.4" fill="#08090A"/><polygon points="464.3,273.7 479.9,276.4 473.3,281.8 457.7,279.0" fill="#0E0F11"/><polygon points="476.0,284.2 491.6,286.9 491.6,284.9 476.0,282.2" fill="#0A0B0C"/><polygon points="498.2,281.6 491.6,286.9 491.6,284.9 498.2,279.6" fill="#08090A"/><polygon points="482.6,276.9 498.2,279.6 491.6,284.9 476.0,282.2" fill="#0E0F11"/><polygon points="494.3,287.4 509.9,290.2 509.9,288.2 494.3,285.4" fill="#0A0B0C"/><polygon points="516.5,284.8 509.9,290.2 509.9,288.2 516.5,282.8" fill="#08090A"/><polygon points="500.9,280.1 516.5,282.8 509.9,288.2 494.3,285.4" fill="#0E0F11"/><polygon points="512.6,290.6 528.2,293.4 528.2,291.4 512.6,288.6" fill="#0A0B0C"/><polygon points="534.8,288.0 528.2,293.4 528.2,291.4 534.8,286.0" fill="#08090A"/><polygon points="519.2,283.3 534.8,286.0 528.2,291.4 512.6,288.6" fill="#0E0F11"/><polygon points="530.9,293.8 546.5,296.6 546.5,294.6 530.9,291.8" fill="#0A0B0C"/><polygon points="553.1,291.2 546.5,296.6 546.5,294.6 553.1,289.2" fill="#08090A"/><polygon points="537.5,286.5 553.1,289.2 546.5,294.6 530.9,291.8" fill="#0E0F11"/><polygon points="549.2,297.0 564.8,299.8 564.8,297.8 549.2,295.0" fill="#0A0B0C"/><polygon points="571.4,294.4 564.8,299.8 564.8,297.8 571.4,292.4" fill="#08090A"/><polygon points="555.8,289.7 571.4,292.4 564.8,297.8 549.2,295.0" fill="#0E0F11"/><polygon points="567.5,300.2 583.1,302.9 583.1,300.9 567.5,298.2" fill="#0A0B0C"/><polygon points="589.7,297.6 583.1,302.9 583.1,300.9 589.7,295.6" fill="#08090A"/><polygon points="574.1,292.9 589.7,295.6 583.1,300.9 567.5,298.2" fill="#0E0F11"/><polygon points="585.8,303.4 601.4,306.2 601.4,304.2 585.8,301.4" fill="#0A0B0C"/><polygon points="608.0,300.8 601.4,306.2 601.4,304.2 608.0,298.8" fill="#08090A"/><polygon points="592.4,296.1 608.0,298.8 601.4,304.2 585.8,301.4" fill="#0E0F11"/><polygon points="604.1,306.6 619.7,309.4 619.7,307.4 604.1,304.6" fill="#0A0B0C"/><polygon points="626.3,304.0 619.7,309.4 619.7,307.4 626.3,302.0" fill="#08090A"/><polygon points="610.7,299.3 626.3,302.0 619.7,307.4 604.1,304.6" fill="#0E0F11"/><polygon points="622.4,309.8 638.0,312.6 638.0,310.6 622.4,307.8" fill="#0A0B0C"/><polygon points="644.6,307.2 638.0,312.6 638.0,310.6 644.6,305.2" fill="#08090A"/><polygon points="629.0,302.5 644.6,305.2 638.0,310.6 622.4,307.8" fill="#0E0F11"/><polygon points="640.7,313.0 656.3,315.8 656.3,313.8 640.7,311.0" fill="#0A0B0C"/><polygon points="662.9,310.4 656.3,315.8 656.3,313.8 662.9,308.4" fill="#08090A"/><polygon points="647.3,305.7 662.9,308.4 656.3,313.8 640.7,311.0" fill="#0E0F11"/><g><polygon points="659.0,316.2 674.6,318.9 674.6,302.0 659.0,299.3" fill="#1C1E21"/><polygon points="681.2,313.6 674.6,318.9 674.6,302.0 681.2,296.7" fill="#151618"/><polygon points="665.6,294.0 681.2,296.7 674.6,302.0 659.0,299.3" fill="#2A2C30"/></g><polygon points="677.3,319.4 692.9,322.2 692.9,320.2 677.3,317.4" fill="#0A0B0C"/><polygon points="699.5,316.8 692.9,322.2 692.9,320.2 699.5,314.8" fill="#08090A"/><polygon points="683.9,312.1 699.5,314.8 692.9,320.2 677.3,317.4" fill="#0E0F11"/><polygon points="695.6,322.6 711.2,325.4 711.2,323.4 695.6,320.6" fill="#0A0B0C"/><polygon points="717.8,320.0 711.2,325.4 711.2,323.4 717.8,318.0" fill="#08090A"/><polygon points="702.2,315.3 717.8,318.0 711.2,323.4 695.6,320.6" fill="#0E0F11"/><polygon points="713.9,325.8 729.5,328.6 729.5,326.6 713.9,323.8" fill="#0A0B0C"/><polygon points="736.1,323.2 729.5,328.6 729.5,326.6 736.1,321.2" fill="#08090A"/><polygon points="720.5,318.5 736.1,321.2 729.5,326.6 713.9,323.8" fill="#0E0F11"/><polygon points="732.2,329.0 747.8,331.8 747.8,329.8 732.2,327.0" fill="#0A0B0C"/><polygon points="754.4,326.4 747.8,331.8 747.8,329.8 754.4,324.4" fill="#08090A"/><polygon points="738.8,321.7 754.4,324.4 747.8,329.8 732.2,327.0" fill="#0E0F11"/><polygon points="750.5,332.2 766.1,334.9 766.1,332.9 750.5,330.2" fill="#0A0B0C"/><polygon points="772.7,329.6 766.1,334.9 766.1,332.9 772.7,327.6" fill="#08090A"/><polygon points="757.1,324.9 772.7,327.6 766.1,332.9 750.5,330.2" fill="#0E0F11"/><g><polygon points="768.8,335.4 784.4,338.2 784.4,277.5 768.8,274.8" fill="#80868E"/><polygon points="791.0,332.8 784.4,338.2 784.4,277.5 791.0,272.1" fill="#5F646B"/><polygon points="775.4,269.4 791.0,272.1 784.4,277.5 768.8,274.8" fill="#B4B9C0"/></g><g><polygon points="787.1,338.6 802.7,341.4 802.7,324.4 787.1,321.7" fill="#1C1E21"/><polygon points="809.3,336.0 802.7,341.4 802.7,324.4 809.3,319.1" fill="#151618"/><polygon points="793.7,316.4 809.3,319.1 802.7,324.4 787.1,321.7" fill="#2A2C30"/></g><g><polygon points="805.4,341.8 821.0,344.6 821.0,304.5 805.4,301.8" fill="#3E4248"/><polygon points="827.6,339.2 821.0,344.6 821.0,304.5 827.6,299.2" fill="#2F3236"/><polygon points="812.0,296.5 827.6,299.2 821.0,304.5 805.4,301.8" fill="#5A5F66"/></g><g><polygon points="823.7,345.0 839.3,347.8 839.3,322.0 823.7,319.3" fill="#1C1E21"/><polygon points="845.9,342.4 839.3,347.8 839.3,322.0 845.9,316.7" fill="#151618"/><polygon points="830.3,314.0 845.9,316.7 839.3,322.0 823.7,319.3" fill="#2A2C30"/></g><g><polygon points="842.0,348.2 857.6,350.9 857.6,334.0 842.0,331.3" fill="#1C1E21"/><polygon points="864.2,345.6 857.6,350.9 857.6,334.0 864.2,328.7" fill="#151618"/><polygon points="848.6,326.0 864.2,328.7 857.6,334.0 842.0,331.3" fill="#2A2C30"/></g><g><polygon points="860.3,351.4 875.9,354.2 875.9,283.7 860.3,281.0" fill="#80868E"/><polygon points="882.5,348.8 875.9,354.2 875.9,283.7 882.5,278.4" fill="#5F646B"/><polygon points="866.9,275.7 882.5,278.4 875.9,283.7 860.3,281.0" fill="#B4B9C0"/></g><g><polygon points="878.6,354.6 894.2,357.4 894.2,344.5 878.6,341.7" fill="#1C1E21"/><polygon points="900.8,352.0 894.2,357.4 894.2,344.5 900.8,339.1" fill="#151618"/><polygon points="885.2,336.4 900.8,339.1 894.2,344.5 878.6,341.7" fill="#2A2C30"/></g><g><polygon points="896.9,357.8 912.5,360.6 912.5,277.1 896.9,274.4" fill="#B00C14"/><polygon points="919.1,355.2 912.5,360.6 912.5,277.1 919.1,271.8" fill="#7E0910"/><polygon points="903.5,269.1 919.1,271.8 912.5,277.1 896.9,274.4" fill="#FF2A2A" filter="url(#glow)"/></g><g><polygon points="915.2,361.0 930.8,363.8 930.8,343.5 915.2,340.8" fill="#1C1E21"/><polygon points="937.4,358.4 930.8,363.8 930.8,343.5 937.4,338.2" fill="#151618"/><polygon points="921.8,335.5 937.4,338.2 930.8,343.5 915.2,340.8" fill="#2A2C30"/></g><g><polygon points="933.5,364.2 949.1,366.9 949.1,338.9 933.5,336.1" fill="#1C1E21"/><polygon points="955.7,361.6 949.1,366.9 949.1,338.9 955.7,333.5" fill="#151618"/><polygon points="940.1,330.8 955.7,333.5 949.1,338.9 933.5,336.1" fill="#2A2C30"/></g><g><polygon points="951.8,367.4 967.4,370.2 967.4,353.2 951.8,350.5" fill="#1C1E21"/><polygon points="974.0,364.8 967.4,370.2 967.4,353.2 974.0,347.9" fill="#151618"/><polygon points="958.4,345.2 974.0,347.9 967.4,353.2 951.8,350.5" fill="#2A2C30"/></g><g><polygon points="970.1,370.6 985.7,373.4 985.7,328.3 970.1,325.6" fill="#3E4248"/><polygon points="992.3,368.0 985.7,373.4 985.7,328.3 992.3,323.0" fill="#2F3236"/><polygon points="976.7,320.3 992.3,323.0 985.7,328.3 970.1,325.6" fill="#5A5F66"/></g><g><polygon points="988.4,373.8 1004.0,376.6 1004.0,359.6 988.4,356.9" fill="#1C1E21"/><polygon points="1010.6,371.2 1004.0,376.6 1004.0,359.6 1010.6,354.3" fill="#151618"/><polygon points="995.0,351.6 1010.6,354.3 1004.0,359.6 988.4,356.9" fill="#2A2C30"/></g><g><polygon points="1006.7,377.0 1022.3,379.8 1022.3,345.3 1006.7,342.6" fill="#3E4248"/><polygon points="1028.9,374.4 1022.3,379.8 1022.3,345.3 1028.9,340.0" fill="#2F3236"/><polygon points="1013.3,337.2 1028.9,340.0 1022.3,345.3 1006.7,342.6" fill="#5A5F66"/></g><polygon points="65.4,220.3 81.0,223.1 81.0,221.1 65.4,218.3" fill="#0A0B0C"/><polygon points="87.6,217.7 81.0,223.1 81.0,221.1 87.6,215.7" fill="#08090A"/><polygon points="72.0,213.0 87.6,215.7 81.0,221.1 65.4,218.3" fill="#0E0F11"/><polygon points="83.7,223.5 99.3,226.2 99.3,224.2 83.7,221.5" fill="#0A0B0C"/><polygon points="105.9,220.9 99.3,226.2 99.3,224.2 105.9,218.9" fill="#08090A"/><polygon points="90.3,216.2 105.9,218.9 99.3,224.2 83.7,221.5" fill="#0E0F11"/><polygon points="102.0,226.7 117.6,229.5 117.6,227.5 102.0,224.7" fill="#0A0B0C"/><polygon points="124.2,224.1 117.6,229.5 117.6,227.5 124.2,222.1" fill="#08090A"/><polygon points="108.6,219.4 124.2,222.1 117.6,227.5 102.0,224.7" fill="#0E0F11"/><polygon points="120.3,229.9 135.9,232.7 135.9,230.7 120.3,227.9" fill="#0A0B0C"/><polygon points="142.5,227.3 135.9,232.7 135.9,230.7 142.5,225.3" fill="#08090A"/><polygon points="126.9,222.6 142.5,225.3 135.9,230.7 120.3,227.9" fill="#0E0F11"/><g><polygon points="138.6,233.1 154.2,235.9 154.2,207.8 138.6,205.0" fill="#1C1E21"/><polygon points="160.8,230.5 154.2,235.9 154.2,207.8 160.8,202.4" fill="#151618"/><polygon points="145.2,199.7 160.8,202.4 154.2,207.8 138.6,205.0" fill="#2A2C30"/></g><polygon points="156.9,236.3 172.5,239.1 172.5,237.1 156.9,234.3" fill="#0A0B0C"/><polygon points="179.1,233.7 172.5,239.1 172.5,237.1 179.1,231.7" fill="#08090A"/><polygon points="163.5,229.0 179.1,231.7 172.5,237.1 156.9,234.3" fill="#0E0F11"/><polygon points="175.2,239.5 190.8,242.2 190.8,240.2 175.2,237.5" fill="#0A0B0C"/><polygon points="197.4,236.9 190.8,242.2 190.8,240.2 197.4,234.9" fill="#08090A"/><polygon points="181.8,232.2 197.4,234.9 190.8,240.2 175.2,237.5" fill="#0E0F11"/><polygon points="193.5,242.7 209.1,245.5 209.1,243.5 193.5,240.7" fill="#0A0B0C"/><polygon points="215.7,240.1 209.1,245.5 209.1,243.5 215.7,238.1" fill="#08090A"/><polygon points="200.1,235.4 215.7,238.1 209.1,243.5 193.5,240.7" fill="#0E0F11"/><polygon points="211.8,245.9 227.4,248.7 227.4,246.7 211.8,243.9" fill="#0A0B0C"/><polygon points="234.0,243.3 227.4,248.7 227.4,246.7 234.0,241.3" fill="#08090A"/><polygon points="218.4,238.6 234.0,241.3 227.4,246.7 211.8,243.9" fill="#0E0F11"/><polygon points="230.1,249.1 245.7,251.9 245.7,249.9 230.1,247.1" fill="#0A0B0C"/><polygon points="252.3,246.5 245.7,251.9 245.7,249.9 252.3,244.5" fill="#08090A"/><polygon points="236.7,241.8 252.3,244.5 245.7,249.9 230.1,247.1" fill="#0E0F11"/><polygon points="248.4,252.3 264.0,255.1 264.0,253.1 248.4,250.3" fill="#0A0B0C"/><polygon points="270.6,249.7 264.0,255.1 264.0,253.1 270.6,247.7" fill="#08090A"/><polygon points="255.0,245.0 270.6,247.7 264.0,253.1 248.4,250.3" fill="#0E0F11"/><polygon points="266.7,255.5 282.3,258.2 282.3,256.2 266.7,253.5" fill="#0A0B0C"/><polygon points="288.9,252.9 282.3,258.2 282.3,256.2 288.9,250.9" fill="#08090A"/><polygon points="273.3,248.2 288.9,250.9 282.3,256.2 266.7,253.5" fill="#0E0F11"/><polygon points="285.0,258.7 300.6,261.4 300.6,259.4 285.0,256.7" fill="#0A0B0C"/><polygon points="307.2,256.1 300.6,261.4 300.6,259.4 307.2,254.1" fill="#08090A"/><polygon points="291.6,251.4 307.2,254.1 300.6,259.4 285.0,256.7" fill="#0E0F11"/><polygon points="303.3,261.9 318.9,264.7 318.9,262.7 303.3,259.9" fill="#0A0B0C"/><polygon points="325.5,259.3 318.9,264.7 318.9,262.7 325.5,257.3" fill="#08090A"/><polygon points="309.9,254.6 325.5,257.3 318.9,262.7 303.3,259.9" fill="#0E0F11"/><polygon points="321.6,265.1 337.2,267.9 337.2,265.9 321.6,263.1" fill="#0A0B0C"/><polygon points="343.8,262.5 337.2,267.9 337.2,265.9 343.8,260.5" fill="#08090A"/><polygon points="328.2,257.8 343.8,260.5 337.2,265.9 321.6,263.1" fill="#0E0F11"/><polygon points="339.9,268.3 355.5,271.1 355.5,269.1 339.9,266.3" fill="#0A0B0C"/><polygon points="362.1,265.7 355.5,271.1 355.5,269.1 362.1,263.7" fill="#08090A"/><polygon points="346.5,261.0 362.1,263.7 355.5,269.1 339.9,266.3" fill="#0E0F11"/><polygon points="358.2,271.5 373.8,274.2 373.8,272.2 358.2,269.5" fill="#0A0B0C"/><polygon points="380.4,268.9 373.8,274.2 373.8,272.2 380.4,266.9" fill="#08090A"/><polygon points="364.8,264.2 380.4,266.9 373.8,272.2 358.2,269.5" fill="#0E0F11"/><polygon points="376.5,274.7 392.1,277.4 392.1,275.4 376.5,272.7" fill="#0A0B0C"/><polygon points="398.7,272.1 392.1,277.4 392.1,275.4 398.7,270.1" fill="#08090A"/><polygon points="383.1,267.4 398.7,270.1 392.1,275.4 376.5,272.7" fill="#0E0F11"/><polygon points="394.8,277.9 410.4,280.7 410.4,278.7 394.8,275.9" fill="#0A0B0C"/><polygon points="417.0,275.3 410.4,280.7 410.4,278.7 417.0,273.3" fill="#08090A"/><polygon points="401.4,270.6 417.0,273.3 410.4,278.7 394.8,275.9" fill="#0E0F11"/><g><polygon points="413.1,281.1 428.7,283.9 428.7,266.9 413.1,264.2" fill="#1C1E21"/><polygon points="435.3,278.5 428.7,283.9 428.7,266.9 435.3,261.6" fill="#151618"/><polygon points="419.7,258.9 435.3,261.6 428.7,266.9 413.1,264.2" fill="#2A2C30"/></g><g><polygon points="431.4,284.3 447.0,287.1 447.0,234.5 431.4,231.8" fill="#80868E"/><polygon points="453.6,281.7 447.0,287.1 447.0,234.5 453.6,229.2" fill="#5F646B"/><polygon points="438.0,226.4 453.6,229.2 447.0,234.5 431.4,231.8" fill="#B4B9C0"/></g><polygon points="449.7,287.5 465.3,290.2 465.3,288.2 449.7,285.5" fill="#0A0B0C"/><polygon points="471.9,284.9 465.3,290.2 465.3,288.2 471.9,282.9" fill="#08090A"/><polygon points="456.3,280.2 471.9,282.9 465.3,288.2 449.7,285.5" fill="#0E0F11"/><polygon points="468.0,290.7 483.6,293.4 483.6,291.4 468.0,288.7" fill="#0A0B0C"/><polygon points="490.2,288.1 483.6,293.4 483.6,291.4 490.2,286.1" fill="#08090A"/><polygon points="474.6,283.4 490.2,286.1 483.6,291.4 468.0,288.7" fill="#0E0F11"/><g><polygon points="486.3,293.9 501.9,296.7 501.9,260.3 486.3,257.5" fill="#3E4248"/><polygon points="508.5,291.3 501.9,296.7 501.9,260.3 508.5,254.9" fill="#2F3236"/><polygon points="492.9,252.2 508.5,254.9 501.9,260.3 486.3,257.5" fill="#5A5F66"/></g><polygon points="504.6,297.1 520.2,299.9 520.2,297.9 504.6,295.1" fill="#0A0B0C"/><polygon points="526.8,294.5 520.2,299.9 520.2,297.9 526.8,292.5" fill="#08090A"/><polygon points="511.2,289.8 526.8,292.5 520.2,297.9 504.6,295.1" fill="#0E0F11"/><polygon points="522.9,300.3 538.5,303.1 538.5,301.1 522.9,298.3" fill="#0A0B0C"/><polygon points="545.1,297.7 538.5,303.1 538.5,301.1 545.1,295.7" fill="#08090A"/><polygon points="529.5,293.0 545.1,295.7 538.5,301.1 522.9,298.3" fill="#0E0F11"/><polygon points="541.2,303.5 556.8,306.2 556.8,304.2 541.2,301.5" fill="#0A0B0C"/><polygon points="563.4,300.9 556.8,306.2 556.8,304.2 563.4,298.9" fill="#08090A"/><polygon points="547.8,296.2 563.4,298.9 556.8,304.2 541.2,301.5" fill="#0E0F11"/><polygon points="559.5,306.7 575.1,309.4 575.1,307.4 559.5,304.7" fill="#0A0B0C"/><polygon points="581.7,304.1 575.1,309.4 575.1,307.4 581.7,302.1" fill="#08090A"/><polygon points="566.1,299.4 581.7,302.1 575.1,307.4 559.5,304.7" fill="#0E0F11"/><g><polygon points="577.8,309.9 593.4,312.7 593.4,272.6 577.8,269.9" fill="#3E4248"/><polygon points="600.0,307.3 593.4,312.7 593.4,272.6 600.0,267.3" fill="#2F3236"/><polygon points="584.4,264.6 600.0,267.3 593.4,272.6 577.8,269.9" fill="#5A5F66"/></g><polygon points="596.1,313.1 611.7,315.9 611.7,313.9 596.1,311.1" fill="#0A0B0C"/><polygon points="618.3,310.5 611.7,315.9 611.7,313.9 618.3,308.5" fill="#08090A"/><polygon points="602.7,305.8 618.3,308.5 611.7,313.9 596.1,311.1" fill="#0E0F11"/><polygon points="614.4,316.3 630.0,319.1 630.0,317.1 614.4,314.3" fill="#0A0B0C"/><polygon points="636.6,313.7 630.0,319.1 630.0,317.1 636.6,311.7" fill="#08090A"/><polygon points="621.0,309.0 636.6,311.7 630.0,317.1 614.4,314.3" fill="#0E0F11"/><polygon points="632.7,319.5 648.3,322.2 648.3,320.2 632.7,317.5" fill="#0A0B0C"/><polygon points="654.9,316.9 648.3,322.2 648.3,320.2 654.9,314.9" fill="#08090A"/><polygon points="639.3,312.2 654.9,314.9 648.3,320.2 632.7,317.5" fill="#0E0F11"/><g><polygon points="651.0,322.7 666.6,325.4 666.6,302.3 651.0,299.6" fill="#1C1E21"/><polygon points="673.2,320.1 666.6,325.4 666.6,302.3 673.2,297.0" fill="#151618"/><polygon points="657.6,294.3 673.2,297.0 666.6,302.3 651.0,299.6" fill="#2A2C30"/></g><polygon points="669.3,325.9 684.9,328.7 684.9,326.7 669.3,323.9" fill="#0A0B0C"/><polygon points="691.5,323.3 684.9,328.7 684.9,326.7 691.5,321.3" fill="#08090A"/><polygon points="675.9,318.6 691.5,321.3 684.9,326.7 669.3,323.9" fill="#0E0F11"/><g><polygon points="687.6,329.1 703.2,331.9 703.2,311.6 687.6,308.9" fill="#1C1E21"/><polygon points="709.8,326.5 703.2,331.9 703.2,311.6 709.8,306.3" fill="#151618"/><polygon points="694.2,303.6 709.8,306.3 703.2,311.6 687.6,308.9" fill="#2A2C30"/></g><polygon points="705.9,332.3 721.5,335.1 721.5,333.1 705.9,330.3" fill="#0A0B0C"/><polygon points="728.1,329.7 721.5,335.1 721.5,333.1 728.1,327.7" fill="#08090A"/><polygon points="712.5,325.0 728.1,327.7 721.5,333.1 705.9,330.3" fill="#0E0F11"/><g><polygon points="724.2,335.5 739.8,338.2 739.8,294.8 724.2,292.1" fill="#3E4248"/><polygon points="746.4,332.9 739.8,338.2 739.8,294.8 746.4,289.5" fill="#2F3236"/><polygon points="730.8,286.8 746.4,289.5 739.8,294.8 724.2,292.1" fill="#5A5F66"/></g><g><polygon points="742.5,338.7 758.1,341.4 758.1,324.5 742.5,321.8" fill="#1C1E21"/><polygon points="764.7,336.1 758.1,341.4 758.1,324.5 764.7,319.2" fill="#151618"/><polygon points="749.1,316.5 764.7,319.2 758.1,324.5 742.5,321.8" fill="#2A2C30"/></g><g><polygon points="760.8,341.9 776.4,344.7 776.4,299.6 760.8,296.9" fill="#3E4248"/><polygon points="783.0,339.3 776.4,344.7 776.4,299.6 783.0,294.3" fill="#2F3236"/><polygon points="767.4,291.6 783.0,294.3 776.4,299.6 760.8,296.9" fill="#5A5F66"/></g><g><polygon points="779.1,345.1 794.7,347.9 794.7,311.5 779.1,308.7" fill="#3E4248"/><polygon points="801.3,342.5 794.7,347.9 794.7,311.5 801.3,306.1" fill="#2F3236"/><polygon points="785.7,303.4 801.3,306.1 794.7,311.5 779.1,308.7" fill="#5A5F66"/></g><g><polygon points="797.4,348.3 813.0,351.1 813.0,283.0 797.4,280.3" fill="#80868E"/><polygon points="819.6,345.7 813.0,351.1 813.0,283.0 819.6,277.7" fill="#5F646B"/><polygon points="804.0,274.9 819.6,277.7 813.0,283.0 797.4,280.3" fill="#B4B9C0"/></g><g><polygon points="815.7,351.5 831.3,354.3 831.3,286.2 815.7,283.5" fill="#80868E"/><polygon points="837.9,348.9 831.3,354.3 831.3,286.2 837.9,280.9" fill="#5F646B"/><polygon points="822.3,278.1 837.9,280.9 831.3,286.2 815.7,283.5" fill="#B4B9C0"/></g><g><polygon points="834.0,354.7 849.6,357.4 849.6,334.3 834.0,331.6" fill="#1C1E21"/><polygon points="856.2,352.1 849.6,357.4 849.6,334.3 856.2,329.0" fill="#151618"/><polygon points="840.6,326.3 856.2,329.0 849.6,334.3 834.0,331.6" fill="#2A2C30"/></g><g><polygon points="852.3,357.9 867.9,360.7 867.9,306.7 852.3,303.9" fill="#80868E"/><polygon points="874.5,355.3 867.9,360.7 867.9,306.7 874.5,301.3" fill="#5F646B"/><polygon points="858.9,298.6 874.5,301.3 867.9,306.7 852.3,303.9" fill="#B4B9C0"/></g><g><polygon points="870.6,361.1 886.2,363.9 886.2,346.9 870.6,344.2" fill="#1C1E21"/><polygon points="892.8,358.5 886.2,363.9 886.2,346.9 892.8,341.6" fill="#151618"/><polygon points="877.2,338.9 892.8,341.6 886.2,346.9 870.6,344.2" fill="#2A2C30"/></g><g><polygon points="888.9,364.3 904.5,367.1 904.5,354.2 888.9,351.4" fill="#1C1E21"/><polygon points="911.1,361.7 904.5,367.1 904.5,354.2 911.1,348.8" fill="#151618"/><polygon points="895.5,346.1 911.1,348.8 904.5,354.2 888.9,351.4" fill="#2A2C30"/></g><g><polygon points="907.2,367.5 922.8,370.3 922.8,337.8 907.2,335.1" fill="#3E4248"/><polygon points="929.4,364.9 922.8,370.3 922.8,337.8 929.4,332.5" fill="#2F3236"/><polygon points="913.8,329.7 929.4,332.5 922.8,337.8 907.2,335.1" fill="#5A5F66"/></g><g><polygon points="925.5,370.7 941.1,373.4 941.1,328.4 925.5,325.7" fill="#3E4248"/><polygon points="947.7,368.1 941.1,373.4 941.1,328.4 947.7,323.1" fill="#2F3236"/><polygon points="932.1,320.4 947.7,323.1 941.1,328.4 925.5,325.7" fill="#5A5F66"/></g><g><polygon points="943.8,373.9 959.4,376.7 959.4,359.7 943.8,357.0" fill="#1C1E21"/><polygon points="966.0,371.3 959.4,376.7 959.4,359.7 966.0,354.4" fill="#151618"/><polygon points="950.4,351.7 966.0,354.4 959.4,359.7 943.8,357.0" fill="#2A2C30"/></g><g><polygon points="962.1,377.1 977.7,379.9 977.7,362.9 962.1,360.2" fill="#1C1E21"/><polygon points="984.3,374.5 977.7,379.9 977.7,362.9 984.3,357.6" fill="#151618"/><polygon points="968.7,354.9 984.3,357.6 977.7,362.9 962.1,360.2" fill="#2A2C30"/></g><g><polygon points="980.4,380.3 996.0,383.1 996.0,366.1 980.4,363.4" fill="#1C1E21"/><polygon points="1002.6,377.7 996.0,383.1 996.0,366.1 1002.6,360.8" fill="#151618"/><polygon points="987.0,358.1 1002.6,360.8 996.0,366.1 980.4,363.4" fill="#2A2C30"/></g><g><polygon points="998.7,383.5 1014.3,386.3 1014.3,325.6 998.7,322.9" fill="#80868E"/><polygon points="1020.9,380.9 1014.3,386.3 1014.3,325.6 1020.9,320.2" fill="#5F646B"/><polygon points="1005.3,317.5 1020.9,320.2 1014.3,325.6 998.7,322.9" fill="#B4B9C0"/></g>
<g class="full"><text x="132.4" y="252.2" class="m" font-size="11" fill="#3E4248" font-weight="700" letter-spacing="1.5" >NOV</text><text x="223.9" y="268.2" class="m" font-size="11" fill="#3E4248" font-weight="700" letter-spacing="1.5" >DEC</text><text x="297.1" y="281.0" class="m" font-size="11" fill="#3E4248" font-weight="700" letter-spacing="1.5" >JAN</text><text x="370.3" y="293.8" class="m" font-size="11" fill="#3E4248" font-weight="700" letter-spacing="1.5" >FEB</text><text x="443.5" y="306.6" class="m" font-size="11" fill="#3E4248" font-weight="700" letter-spacing="1.5" >MAR</text><text x="535.0" y="322.6" class="m" font-size="11" fill="#3E4248" font-weight="700" letter-spacing="1.5" >APR</text><text x="608.2" y="335.4" class="m" font-size="11" fill="#3E4248" font-weight="700" letter-spacing="1.5" >MAY</text><text x="699.7" y="351.4" class="m" font-size="11" fill="#3E4248" font-weight="700" letter-spacing="1.5" >JUN</text><text x="772.9" y="364.2" class="m" font-size="11" fill="#3E4248" font-weight="700" letter-spacing="1.5" >JUL</text><text x="846.1" y="377.0" class="m" font-size="11" fill="#3E4248" font-weight="700" letter-spacing="1.5" >AUG</text><text x="937.6" y="393.0" class="m" font-size="11" fill="#3E4248" font-weight="700" letter-spacing="1.5" >SEP</text><text x="1010.8" y="405.8" class="m" font-size="11" fill="#3E4248" font-weight="700" letter-spacing="1.5" >OCT</text></g>

</svg>
